<svg id="Layer_1" data-name="Layer 1" xmlns="http://www.w3.org/2000/svg" xmlns:xlink="http://www.w3.org/1999/xlink" width="1366" height="768" viewBox="0 0 1366 768"><defs><style>.cls-1,.cls-2{fill:none;}.cls-2{stroke:#97ca38;stroke-width:2px;}.cls-2,.cls-3{stroke-miterlimit:10;}.cls-3,.cls-6{fill:#eaeaea;}.cls-3{stroke:#00202c;stroke-width:4px;}.cls-4{font-size:48.28px;fill:#253746;font-family:Avenir-Roman, Avenir;}.cls-5{letter-spacing:0.02em;}.cls-7{fill:#007eb1;}.cls-8{fill:#1c3747;}.cls-9{clip-path:url(#clip-path);}.cls-10{clip-path:url(#clip-path-3);}.cls-11{clip-path:url(#clip-path-5);}.cls-12{clip-path:url(#clip-path-7);}.cls-13{clip-path:url(#clip-path-9);}.cls-14{clip-path:url(#clip-path-11);}.cls-15{clip-path:url(#clip-path-13);}.cls-16{clip-path:url(#clip-path-15);}.cls-17{clip-path:url(#clip-path-17);}</style><clipPath id="clip-path"><rect class="cls-1" x="903.74" y="515.19" width="139.36" height="120.78"/></clipPath><clipPath id="clip-path-3"><rect class="cls-1" x="810.39" y="380.69" width="139.36" height="120.78"/></clipPath><clipPath id="clip-path-5"><rect class="cls-1" x="717.04" y="515.19" width="139.36" height="120.78"/></clipPath><clipPath id="clip-path-7"><rect class="cls-1" x="407.58" y="236.09" width="112.29" height="112.29"/></clipPath><clipPath id="clip-path-9"><rect class="cls-1" x="821.92" y="236.09" width="112.29" height="112.29"/></clipPath><clipPath id="clip-path-11"><rect class="cls-1" x="485.39" y="515.19" width="139.36" height="120.78"/></clipPath><clipPath id="clip-path-13"><rect class="cls-1" x="392.04" y="380.69" width="139.36" height="120.78"/></clipPath><clipPath id="clip-path-15"><rect class="cls-1" x="298.69" y="515.19" width="139.36" height="120.78"/></clipPath><clipPath id="clip-path-17"><rect class="cls-1" x="1068.41" y="219.56" width="96.78" height="80.23"/></clipPath></defs><line class="cls-2" x1="931.94" y1="292.24" x2="1006.52" y2="292.24"/><rect class="cls-3" x="1006.52" y="196.37" width="220.54" height="191.65" rx="2"/><text class="cls-4" transform="translate(1061.77 352.18)">D<tspan class="cls-5" x="35.77" y="0">M</tspan><tspan x="80.53" y="0">Z</tspan></text><line class="cls-2" x1="463.72" y1="348.38" x2="463.72" y2="384"/><line class="cls-2" x1="880.07" y1="348.38" x2="880.07" y2="384"/><line class="cls-2" x1="878.07" y1="292.24" x2="671.56" y2="155.39"/><line class="cls-2" x1="463.72" y1="292.24" x2="670.55" y2="155.39"/><circle class="cls-6" cx="670.55" cy="155.39" r="56.14"/><path class="cls-7" d="M670.55,212.6a57.21,57.21,0,1,1,57.21-57.21A57.28,57.28,0,0,1,670.55,212.6Zm0-112.29a55.08,55.08,0,1,0,55.08,55.08A55.14,55.14,0,0,0,670.55,100.31Z"/><g id="static-arrow_long_up-darkblue"><path class="cls-8" d="M659,127.76a1.19,1.19,0,0,1,0-1.75l10.61-10.08a1.37,1.37,0,0,1,1.85,0L682.09,126a1.19,1.19,0,0,1,0,1.75l-1.21,1.15a1.34,1.34,0,0,1-1.87,0l-6.26-6.23v14.89a1.28,1.28,0,0,1-1.31,1.25h-1.75a1.27,1.27,0,0,1-1.3-1.25V122.65l-6.27,6.24a1.34,1.34,0,0,1-1.87,0Z"/></g><g id="static-arrow_long_up-darkblue-2" data-name="static-arrow_long_up-darkblue"><path class="cls-8" d="M682.06,183.66a1.2,1.2,0,0,1,0,1.76l-10.6,10.07a1.35,1.35,0,0,1-1.85,0L659,185.43a1.2,1.2,0,0,1,0-1.76l1.21-1.15a1.35,1.35,0,0,1,1.87,0l6.26,6.24v-14.9a1.28,1.28,0,0,1,1.31-1.24h1.74a1.28,1.28,0,0,1,1.31,1.24v14.9l6.26-6.25a1.38,1.38,0,0,1,1.88,0Z"/></g><g id="static-arrow_long_up-darkblue-3" data-name="static-arrow_long_up-darkblue"><path class="cls-8" d="M699.68,167.23a1.2,1.2,0,0,1-1.76,0l-10.08-10.6a1.38,1.38,0,0,1,0-1.86l10.07-10.6a1.19,1.19,0,0,1,1.75,0l1.16,1.21a1.36,1.36,0,0,1,0,1.87l-6.24,6.26h14.89a1.28,1.28,0,0,1,1.25,1.31v1.75a1.28,1.28,0,0,1-1.25,1.31H694.56l6.24,6.26a1.34,1.34,0,0,1,0,1.87Z"/></g><g id="static-arrow_long_up-darkblue-4" data-name="static-arrow_long_up-darkblue"><path class="cls-8" d="M641.42,144.2a1.2,1.2,0,0,1,1.76,0l10.07,10.6a1.35,1.35,0,0,1,0,1.85l-10.06,10.6a1.19,1.19,0,0,1-1.75,0L640.28,166a1.36,1.36,0,0,1,0-1.87l6.24-6.26h-14.9a1.27,1.27,0,0,1-1.24-1.3v-1.75a1.28,1.28,0,0,1,1.24-1.31h14.9l-6.24-6.26a1.34,1.34,0,0,1,0-1.87Z"/></g><g id="Desktop_Monitor" data-name="Desktop Monitor"><g class="cls-9"><g class="cls-9"><path class="cls-7" d="M1036.64,515.19H910.2a6.46,6.46,0,0,0-6.46,6.46V604a6.46,6.46,0,0,0,6.46,6.46h126.44a6.46,6.46,0,0,0,6.46-6.46V521.65a6.46,6.46,0,0,0-6.46-6.46m-64.28,91.63a3.3,3.3,0,1,1,3.3-3.3,3.3,3.3,0,0,1-3.3,3.3m63.77-14.48a5.65,5.65,0,0,1-5.44,5.31h-116c-2.8,0-4-2.57-4-5.31V526.86c0-2.74,1.19-4.7,4-4.7h116c2.8,0,5.44,2,5.44,4.7Zm-35,36.66h-9.51a3.33,3.33,0,0,1-3.14-3.45l-2.23-8.29a3.4,3.4,0,0,0-3.6-3.36H962.78a3.45,3.45,0,0,0-3.61,3.41L957,625.65a3.23,3.23,0,0,1-3.13,3.35h-9a3.49,3.49,0,0,0,0,7h56.31a3.49,3.49,0,0,0,0-7"/></g></g></g><g id="Desktop_Monitor-2" data-name="Desktop Monitor"><g class="cls-10"><g class="cls-10"><path class="cls-7" d="M943.29,380.69H816.85a6.46,6.46,0,0,0-6.46,6.46v82.31a6.46,6.46,0,0,0,6.46,6.46H943.29a6.47,6.47,0,0,0,6.46-6.46V387.15a6.46,6.46,0,0,0-6.46-6.46M879,472.32a3.3,3.3,0,1,1,3.3-3.3,3.3,3.3,0,0,1-3.3,3.3m63.77-14.48a5.64,5.64,0,0,1-5.44,5.3h-116c-2.8,0-4-2.56-4-5.3V392.35c0-2.73,1.19-4.69,4-4.69h116c2.8,0,5.44,2,5.44,4.69Zm-35,36.66h-9.51a3.33,3.33,0,0,1-3.14-3.45l-2.23-8.29a3.4,3.4,0,0,0-3.6-3.36H869.43a3.45,3.45,0,0,0-3.61,3.41l-2.22,8.34a3.24,3.24,0,0,1-3.13,3.35h-9a3.49,3.49,0,0,0,0,7h56.31a3.49,3.49,0,0,0,0-7"/></g></g></g><g id="Desktop_Monitor-3" data-name="Desktop Monitor"><g class="cls-11"><g class="cls-11"><path class="cls-7" d="M849.94,515.19H723.5a6.46,6.46,0,0,0-6.46,6.46V604a6.46,6.46,0,0,0,6.46,6.46H849.94A6.46,6.46,0,0,0,856.4,604V521.65a6.46,6.46,0,0,0-6.46-6.46m-64.28,91.63a3.3,3.3,0,1,1,3.3-3.3,3.3,3.3,0,0,1-3.3,3.3m63.77-14.48a5.65,5.65,0,0,1-5.44,5.31H728c-2.8,0-4-2.57-4-5.31V526.86c0-2.74,1.19-4.7,4-4.7H844c2.8,0,5.44,2,5.44,4.7Zm-35,36.66h-9.51a3.33,3.33,0,0,1-3.14-3.45l-2.23-8.29a3.4,3.4,0,0,0-3.6-3.36H776.08a3.45,3.45,0,0,0-3.61,3.41l-2.22,8.34a3.23,3.23,0,0,1-3.13,3.35h-9a3.49,3.49,0,0,0,0,7h56.31a3.49,3.49,0,0,0,0-7"/></g></g></g><g id="Firewall_Flat" data-name="Firewall Flat"><g class="cls-12"><g class="cls-12"><path class="cls-6" d="M463.73,347.36a55.11,55.11,0,1,1,39-16.14,54.79,54.79,0,0,1-39,16.14"/><path class="cls-7" d="M463.73,238.11a54,54,0,1,1-21.07,4.26,53.64,53.64,0,0,1,21.07-4.26m0-2a56.11,56.11,0,1,0,56.1,56.11,56.1,56.1,0,0,0-56.1-56.11"/><rect class="cls-8" x="426.58" y="268.05" width="24.97" height="14.47" rx="0.19"/><path class="cls-6" d="M450.86,281.83H427.27V268.74h23.59Zm.5-14.47H426.77a.89.89,0,0,0-.88.88v14.09a.88.88,0,0,0,.88.88h24.59a.88.88,0,0,0,.88-.88V268.24a.89.89,0,0,0-.88-.88"/><rect class="cls-8" x="426.58" y="305.39" width="24.97" height="14.47" rx="0.19"/><path class="cls-6" d="M450.86,319.17H427.27v-13.1h23.59Zm.5-14.47H426.77a.88.88,0,0,0-.88.88v14.09a.89.89,0,0,0,.88.88h24.59a.89.89,0,0,0,.88-.88V305.58a.88.88,0,0,0-.88-.88"/><rect class="cls-8" x="455.18" y="268.05" width="24.97" height="14.47" rx="0.19"/><path class="cls-6" d="M479.46,281.83H455.87V268.74h23.59Zm.5-14.47H455.38a.88.88,0,0,0-.88.88v14.09a.87.87,0,0,0,.88.88H480a.88.88,0,0,0,.88-.88V268.24a.89.89,0,0,0-.88-.88"/><rect class="cls-8" x="455.18" y="305.39" width="24.97" height="14.47" rx="0.19"/><path class="cls-6" d="M479.46,319.17H455.87v-13.1h23.59Zm.5-14.47H455.38a.87.87,0,0,0-.88.88v14.09a.88.88,0,0,0,.88.88H480a.89.89,0,0,0,.88-.88V305.58a.88.88,0,0,0-.88-.88"/><rect class="cls-8" x="426.58" y="286.25" width="53.57" height="15.41" rx="0.62"/><path class="cls-6" d="M479.46,301H427.27v-14h52.19Zm.07-15.41H427.2a1.31,1.31,0,0,0-1.31,1.31V301a1.31,1.31,0,0,0,1.31,1.31h52.33a1.31,1.31,0,0,0,1.31-1.31V286.87a1.31,1.31,0,0,0-1.31-1.31"/><path class="cls-8" d="M478.76,322.22l-.31-.13c-.43-.18-10.66-4.56-13.37-13.84-1.61-5.48-.25-11.41,4-17.63l0-.06,0-.05c10.27-12.58,10.51-14.62,11.52-23.23l.32-2.68,2.22,1.32a69,69,0,0,1,11.14,8.72c7.52,7.23,11.89,15,12.64,22.44.88,8.68-3,17-11.44,24.7l-.48.44Z"/><path class="cls-6" d="M482.41,267.36s42.61,25.39,12.07,53.19H479.1s-22.17-9.3-8.6-29c10.63-13,10.86-15.27,11.91-24.21m-2.72-5.52-.6,5.13,0,.12c-.5,4.3-.78,6.67-2.08,9.49s-3.89,6.51-9.08,12.87l-.09.1-.07.12c-4.59,6.65-6,13.06-4.28,19.05,2.94,10,13.87,14.72,14.33,14.91l.62.26h17.35l1-.87c8.89-8.09,12.92-16.87,12-26.11a31.54,31.54,0,0,0-4.81-13.37,52.62,52.62,0,0,0-8.34-10.11,69.42,69.42,0,0,0-11.45-8.94Z"/><path class="cls-6" d="M486.78,300.23s16.27,9.7,4.61,20.32h-5.88S477,317,482.23,309.48c4.06-5,4.15-5.84,4.55-9.25"/></g></g></g><g id="Firewall_Flat-2" data-name="Firewall Flat"><g class="cls-13"><g class="cls-13"><path class="cls-6" d="M878.07,347.36a55.11,55.11,0,1,1,39-16.14,54.75,54.75,0,0,1-39,16.14"/><path class="cls-7" d="M878.07,238.11A54,54,0,1,1,857,242.37a53.64,53.64,0,0,1,21.07-4.26m0-2a56.11,56.11,0,1,0,56.1,56.11,56.11,56.11,0,0,0-56.1-56.11"/><rect class="cls-8" x="840.93" y="268.05" width="24.97" height="14.47" rx="0.19"/><path class="cls-6" d="M865.21,281.83H841.62V268.74h23.59Zm.49-14.47H841.12a.89.89,0,0,0-.88.88v14.09a.88.88,0,0,0,.88.88H865.7a.87.87,0,0,0,.88-.88V268.24a.88.88,0,0,0-.88-.88"/><rect class="cls-8" x="840.93" y="305.39" width="24.97" height="14.47" rx="0.19"/><path class="cls-6" d="M865.21,319.17H841.62v-13.1h23.59Zm.49-14.47H841.12a.88.88,0,0,0-.88.88v14.09a.89.89,0,0,0,.88.88H865.7a.88.88,0,0,0,.88-.88V305.58a.87.87,0,0,0-.88-.88"/><rect class="cls-8" x="869.53" y="268.05" width="24.97" height="14.47" rx="0.19"/><path class="cls-6" d="M893.81,281.83H870.22V268.74h23.59Zm.49-14.47H869.72a.89.89,0,0,0-.88.88v14.09a.88.88,0,0,0,.88.88H894.3a.88.88,0,0,0,.89-.88V268.24a.89.89,0,0,0-.89-.88"/><rect class="cls-8" x="869.53" y="305.39" width="24.97" height="14.47" rx="0.19"/><path class="cls-6" d="M893.81,319.17H870.22v-13.1h23.59Zm.49-14.47H869.72a.88.88,0,0,0-.88.88v14.09a.89.89,0,0,0,.88.88H894.3a.89.89,0,0,0,.89-.88V305.58a.88.88,0,0,0-.89-.88"/><rect class="cls-8" x="840.93" y="286.25" width="53.57" height="15.41" rx="0.62"/><path class="cls-6" d="M893.81,301H841.62v-14h52.19Zm.07-15.41H841.55a1.31,1.31,0,0,0-1.31,1.31V301a1.31,1.31,0,0,0,1.31,1.31h52.33a1.31,1.31,0,0,0,1.31-1.31V286.87a1.31,1.31,0,0,0-1.31-1.31"/><path class="cls-8" d="M893.11,322.22l-.31-.13c-.44-.18-10.66-4.56-13.38-13.84-1.6-5.48-.24-11.41,4.05-17.63l0-.06,0-.05c10.28-12.58,10.52-14.62,11.53-23.23l.32-2.68,2.21,1.32a68.49,68.49,0,0,1,11.14,8.72c7.53,7.23,11.9,15,12.65,22.44.88,8.68-3,17-11.45,24.7l-.48.44Z"/><path class="cls-6" d="M896.76,267.36s42.6,25.39,12.07,53.19H893.44s-22.17-9.3-8.59-29c10.63-13,10.86-15.27,11.91-24.21M894,261.84l-.61,5.13v.12c-.51,4.3-.79,6.67-2.08,9.49s-3.89,6.51-9.08,12.87l-.09.1-.08.12c-4.59,6.65-6,13.06-4.27,19.05,2.94,10,13.86,14.72,14.33,14.91l.62.26h17.35l1-.87c8.88-8.09,12.92-16.87,12-26.11a31.54,31.54,0,0,0-4.81-13.37,52.69,52.69,0,0,0-8.35-10.11,69.13,69.13,0,0,0-11.44-8.94Z"/><path class="cls-6" d="M901.12,300.23s16.28,9.7,4.61,20.32h-5.87s-8.47-3.56-3.28-11.07c4.06-5,4.14-5.84,4.54-9.25"/></g></g></g><g id="Desktop_Monitor-4" data-name="Desktop Monitor"><g class="cls-14"><g class="cls-14"><path class="cls-7" d="M618.29,515.19H491.85a6.46,6.46,0,0,0-6.46,6.46V604a6.46,6.46,0,0,0,6.46,6.46H618.29a6.46,6.46,0,0,0,6.46-6.46V521.65a6.46,6.46,0,0,0-6.46-6.46M554,606.82a3.3,3.3,0,1,1,3.29-3.3,3.3,3.3,0,0,1-3.29,3.3m63.76-14.48a5.65,5.65,0,0,1-5.43,5.31h-116c-2.79,0-4-2.57-4-5.31V526.86c0-2.74,1.2-4.7,4-4.7h116c2.79,0,5.43,2,5.43,4.7ZM582.8,629h-9.52a3.33,3.33,0,0,1-3.14-3.45l-2.22-8.29a3.41,3.41,0,0,0-3.61-3.36H544.43a3.45,3.45,0,0,0-3.61,3.41l-2.21,8.34a3.24,3.24,0,0,1-3.14,3.35h-9a3.49,3.49,0,0,0,0,7H582.8a3.49,3.49,0,0,0,0-7"/></g></g></g><g id="Desktop_Monitor-5" data-name="Desktop Monitor"><g class="cls-15"><g class="cls-15"><path class="cls-7" d="M524.94,380.69H398.5a6.46,6.46,0,0,0-6.46,6.46v82.31a6.46,6.46,0,0,0,6.46,6.46H524.94a6.46,6.46,0,0,0,6.46-6.46V387.15a6.46,6.46,0,0,0-6.46-6.46m-64.27,91.63A3.3,3.3,0,1,1,464,469a3.3,3.3,0,0,1-3.29,3.3m63.76-14.48a5.64,5.64,0,0,1-5.43,5.3H403c-2.79,0-4-2.56-4-5.3V392.35c0-2.73,1.2-4.69,4-4.69H519c2.79,0,5.43,2,5.43,4.69Zm-35,36.66h-9.52a3.33,3.33,0,0,1-3.14-3.45l-2.22-8.29A3.41,3.41,0,0,0,471,479.4H451.08a3.45,3.45,0,0,0-3.61,3.41l-2.21,8.34a3.25,3.25,0,0,1-3.14,3.35h-9a3.49,3.49,0,0,0,0,7h56.31a3.49,3.49,0,0,0,0-7"/></g></g></g><g id="Desktop_Monitor-6" data-name="Desktop Monitor"><g class="cls-16"><g class="cls-16"><path class="cls-7" d="M431.59,515.19H305.15a6.46,6.46,0,0,0-6.46,6.46V604a6.46,6.46,0,0,0,6.46,6.46H431.59a6.46,6.46,0,0,0,6.46-6.46V521.65a6.46,6.46,0,0,0-6.46-6.46m-64.27,91.63a3.3,3.3,0,1,1,3.29-3.3,3.3,3.3,0,0,1-3.29,3.3m63.76-14.48a5.65,5.65,0,0,1-5.43,5.31h-116c-2.8,0-4-2.57-4-5.31V526.86c0-2.74,1.19-4.7,4-4.7h116c2.79,0,5.43,2,5.43,4.7ZM396.1,629h-9.52a3.33,3.33,0,0,1-3.14-3.45l-2.22-8.29a3.41,3.41,0,0,0-3.61-3.36H357.73a3.45,3.45,0,0,0-3.61,3.41l-2.21,8.34a3.24,3.24,0,0,1-3.14,3.35h-9a3.49,3.49,0,0,0,0,7H396.1a3.49,3.49,0,0,0,0-7"/></g></g></g><g id="Server_Rack" data-name="Server Rack"><g class="cls-17"><g class="cls-17"><path class="cls-8" d="M1161.85,276.64h-90.11a3.33,3.33,0,0,0-3.33,3.33v16.49a3.33,3.33,0,0,0,3.33,3.33h90.11a3.33,3.33,0,0,0,3.33-3.33V280a3.33,3.33,0,0,0-3.33-3.33M1084,291.13a.71.71,0,0,1-.71.71h-5.81a.71.71,0,0,1-.72-.71v-5.81a.72.72,0,0,1,.72-.72h5.81a.71.71,0,0,1,.71.72Zm56.6-4.65a2,2,0,1,1,2-2,2,2,0,0,1-2,2m8,0a2,2,0,1,1,2-2,2,2,0,0,1-2,2m7.33,0a2,2,0,1,1,1.95-2,2,2,0,0,1-1.95,2"/><path class="cls-8" d="M1161.85,248h-90.11a3.33,3.33,0,0,0-3.33,3.33v16.49a3.33,3.33,0,0,0,3.33,3.33h90.11a3.33,3.33,0,0,0,3.33-3.33V251.35a3.33,3.33,0,0,0-3.33-3.33M1084,262.51a.71.71,0,0,1-.71.71h-5.81a.71.71,0,0,1-.72-.71v-5.82a.71.71,0,0,1,.72-.71h5.81a.71.71,0,0,1,.71.71Zm56.6-4.66a2,2,0,1,1,2-2,1.95,1.95,0,0,1-2,2m8,0a2,2,0,1,1,2-2,1.95,1.95,0,0,1-2,2m7.33,0a2,2,0,1,1,1.95-2,2,2,0,0,1-1.95,2"/><path class="cls-8" d="M1161.85,219.56h-90.11a3.33,3.33,0,0,0-3.33,3.33v16.49a3.33,3.33,0,0,0,3.33,3.33h90.11a3.33,3.33,0,0,0,3.33-3.33V222.89a3.33,3.33,0,0,0-3.33-3.33M1084,234.05a.71.71,0,0,1-.71.72h-5.81a.72.72,0,0,1-.72-.72v-5.81a.72.72,0,0,1,.72-.72h5.81a.71.71,0,0,1,.71.72Zm56.6-4.65a2,2,0,1,1,2-2,1.95,1.95,0,0,1-2,2m8,0a2,2,0,1,1,2-2,1.95,1.95,0,0,1-2,2m7.33,0a2,2,0,1,1,1.95-2,2,2,0,0,1-1.95,2"/></g></g></g></svg>