<svg xmlns="http://www.w3.org/2000/svg" viewBox="0 0 1688.24 1216.38"><defs><style>.cls-1{fill:#211e1f;stroke:#013f58;stroke-width:4px;}.cls-1,.cls-11,.cls-12,.cls-13,.cls-4{stroke-miterlimit:10;}.cls-11,.cls-2,.cls-4{fill:#fff;}.cls-3{fill:#013f58;}.cls-11,.cls-12,.cls-13,.cls-4{stroke:#007eb1;}.cls-4{stroke-width:10px;}.cls-16,.cls-5{fill:#007eb1;}.cls-6{font-size:33.81px;}.cls-19,.cls-6,.cls-7{font-family:Avenir-Medium, Avenir;font-weight:500;}.cls-19,.cls-7{font-size:30px;fill:#231f20;}.cls-8{fill:#1c3747;}.cls-9{letter-spacing:-0.02em;}.cls-10{letter-spacing:0.04em;}.cls-11{stroke-width:5.34px;}.cls-12,.cls-13{fill:none;}.cls-12{stroke-width:3px;}.cls-14{letter-spacing:0.02em;}.cls-15{letter-spacing:0.04em;}.cls-16,.cls-22{fill-rule:evenodd;}.cls-17{fill:#ebeaea;}.cls-18{letter-spacing:-0.11em;}.cls-19{letter-spacing:-0.05em;}.cls-20{letter-spacing:0em;}.cls-21,.cls-22{fill:#017fb1;}.cls-23{fill:#087fb1;}.cls-24{letter-spacing:-0.02em;}</style></defs><g id="lines"><line class="cls-1" x1="601.14" y1="136.47" x2="851.85" y2="136.47"/><line class="cls-1" x1="153.26" y1="795.57" x2="1002.08" y2="795.57"/><path class="cls-1" d="M323.16,797.54c.18-35.95.18-71.57,0-107.43"/><rect class="cls-2" x="274.63" y="710.95" width="103.75" height="32.88"/><rect class="cls-2" x="158.99" y="838.43" width="103.75" height="43.53"/><rect class="cls-2" x="158.99" y="838.43" width="103.75" height="43.53"/></g><g id="icon"><g id="wifi"><path class="cls-3" d="M1336.05,498.09a62.11,62.11,0,0,1-18.24,44.22,4.27,4.27,0,0,0,3,7.29,4.25,4.25,0,0,0,3-1.25,71.37,71.37,0,0,0,0-100.51,4.22,4.22,0,0,0-3-1.26,4.26,4.26,0,0,0-3,7.27,62.17,62.17,0,0,1,18.24,44.24"/><path class="cls-3" d="M1300.6,528.54a4.25,4.25,0,0,0,1.24,3,4.2,4.2,0,0,0,6,0,47.54,47.54,0,0,0,0-67,4.25,4.25,0,0,0-6,0,4.23,4.23,0,0,0-1.24,3,4.16,4.16,0,0,0,1.24,3,39,39,0,0,1,0,54.91,4.27,4.27,0,0,0-1.24,3"/><path class="cls-3" d="M1288.57,479.8a4.17,4.17,0,0,0-3,1.25,4.26,4.26,0,0,0,0,6,15.67,15.67,0,0,1,0,22,4.26,4.26,0,0,0-1.25,3,4.32,4.32,0,0,0,1.25,3,4.11,4.11,0,0,0,3,1.24,4.21,4.21,0,0,0,3-1.24,24.23,24.23,0,0,0,0-34.08,4.25,4.25,0,0,0-3-1.25"/><circle class="cls-3" cx="1268.94" cy="498.1" r="9.29"/></g><g id="wifi-2" data-name="wifi"><path class="cls-3" d="M1335.56,686.77A62.17,62.17,0,0,1,1317.32,731a4.26,4.26,0,1,0,6,6,71.37,71.37,0,0,0,0-100.51,4.19,4.19,0,0,0-3-1.26,4.26,4.26,0,0,0-3,7.27,62.22,62.22,0,0,1,18.24,44.24"/><path class="cls-3" d="M1300.11,717.22a4.23,4.23,0,0,0,1.24,3,4.18,4.18,0,0,0,6,0,47.53,47.53,0,0,0,0-67,4.25,4.25,0,0,0-6,0,4.23,4.23,0,0,0-1.24,3,4.16,4.16,0,0,0,1.24,3,39,39,0,0,1,0,54.91,4.27,4.27,0,0,0-1.24,3"/><path class="cls-3" d="M1288.08,668.48a4.21,4.21,0,0,0-3,1.24,4.27,4.27,0,0,0,0,6,15.66,15.66,0,0,1,0,22,4.25,4.25,0,0,0,0,6,4.12,4.12,0,0,0,3,1.25,4.24,4.24,0,0,0,3-1.25,24.23,24.23,0,0,0,0-34.08,4.3,4.3,0,0,0-3-1.24"/><circle class="cls-3" cx="1268.45" cy="686.77" r="9.29"/></g><g id="wifi-3" data-name="wifi"><path class="cls-3" d="M1336,880.13a62.13,62.13,0,0,1-18.24,44.22,4.27,4.27,0,1,0,6,6,71.37,71.37,0,0,0,0-100.51,4.2,4.2,0,0,0-3-1.26,4.26,4.26,0,0,0-3,7.27A62.17,62.17,0,0,1,1336,880.13"/><path class="cls-3" d="M1300.6,910.58a4.19,4.19,0,0,0,1.24,3,4.17,4.17,0,0,0,6,0,47.53,47.53,0,0,0,0-67,4.24,4.24,0,0,0-6,6,39,39,0,0,1,0,54.91,4.23,4.23,0,0,0-1.24,3"/><path class="cls-3" d="M1288.57,861.84a4.23,4.23,0,0,0-3,1.24,4.27,4.27,0,0,0,0,6,15.66,15.66,0,0,1,0,22,4.27,4.27,0,0,0,0,6,4.1,4.1,0,0,0,3,1.25,4.21,4.21,0,0,0,3-1.25,24.25,24.25,0,0,0,0-34.08,4.32,4.32,0,0,0-3-1.24"/><circle class="cls-3" cx="1268.94" cy="880.13" r="9.29"/></g><g id="wifi-4" data-name="wifi"><path class="cls-3" d="M1334.07,1037.91a62.13,62.13,0,0,1-18.24,44.22,4.27,4.27,0,0,0,6,6,71.38,71.38,0,0,0,0-100.52,4.24,4.24,0,0,0-3-1.25,4.26,4.26,0,0,0-3,7.27,62.17,62.17,0,0,1,18.24,44.24"/><path class="cls-3" d="M1298.63,1068.36a4.22,4.22,0,0,0,1.23,3,4.16,4.16,0,0,0,3,1.26,4.1,4.1,0,0,0,3-1.26,47.53,47.53,0,0,0,0-67,4.16,4.16,0,0,0-3-1.24,4.22,4.22,0,0,0-4.23,4.26,4.15,4.15,0,0,0,1.23,3,39,39,0,0,1,0,54.91,4.26,4.26,0,0,0-1.23,3"/><path class="cls-3" d="M1286.6,1019.62a4.23,4.23,0,0,0-3,1.24,4.27,4.27,0,0,0,0,6,15.66,15.66,0,0,1,0,22,4.27,4.27,0,0,0,0,6,4.14,4.14,0,0,0,3,1.25,4.21,4.21,0,0,0,3-1.25,24.23,24.23,0,0,0,0-34.08,4.28,4.28,0,0,0-3-1.24"/><circle class="cls-3" cx="1266.97" cy="1037.91" r="9.29"/></g></g><g id="text"><path class="cls-1" d="M536.11,948.15c.18-271.66.18-540.74,0-811.68"/><rect class="cls-2" x="386.54" y="176.43" width="275.18" height="59.44" rx="12"/><rect class="cls-2" x="398.52" y="510.82" width="275.18" height="59.44" rx="12"/><g id="Internet_Flat" data-name="Internet Flat"><path class="cls-4" d="M960.18,118.34a70.26,70.26,0,1,1-70.26-70.26A70,70,0,0,1,960.18,118.34Z"/><path class="cls-5" d="M857.68,134.88H828.06a62.45,62.45,0,0,1,0-33.08H857.7c-.54,5.42-.85,11-.85,16.54S857.16,129.45,857.68,134.88Zm1.06-41.36H830.82a64.2,64.2,0,0,1,40.82-36.6C865.33,65.66,861,78.82,858.74,93.52Zm0,49.63c2.27,14.71,6.62,27.87,12.92,36.6a64.26,64.26,0,0,1-40.84-36.6ZM866,101.8h47.89a159.48,159.48,0,0,1,0,33.08H866a159.48,159.48,0,0,1,0-33.08Zm1.08-8.28c3.75-23.08,12.59-39.28,22.88-39.28s19.12,16.2,22.87,39.28Zm45.75,49.63c-3.75,23.08-12.59,39.29-22.87,39.29s-19.13-16.21-22.88-39.29Zm8.33-49.63c-2.28-14.7-6.62-27.86-12.93-36.6a64.24,64.24,0,0,1,40.84,36.6Zm0,49.63h27.92a64.33,64.33,0,0,1-40.84,36.6C914.54,171,918.89,157.86,921.16,143.15ZM954,118.34a63.6,63.6,0,0,1-2.22,16.54H922.17c.54-5.43.85-11,.85-16.54s-.31-11.12-.85-16.54h29.65A64.83,64.83,0,0,1,954,118.34Z"/><rect class="cls-2" x="877.3" y="107.37" width="118.37" height="52.13" rx="16.22"/><text class="cls-6" transform="translate(877.3 144.04)">https://</text></g><rect class="cls-2" x="749.88" y="198.66" width="275.18" height="59.44" rx="12"/><text class="cls-7" transform="translate(833.28 239.71)">Internet</text><rect class="cls-2" x="462.7" y="411.92" width="148.63" height="98.66"/><g id="Firewall"><rect class="cls-5" x="476.6" y="405.9" width="19.12" height="42.97" rx="0.5" transform="translate(913.54 -58.77) rotate(90)"/><rect class="cls-5" x="524.83" y="405.9" width="19.12" height="42.97" rx="0.5" transform="translate(961.77 -107.01) rotate(90)"/><path class="cls-5" d="M562.6,417.81h16.33l-.88,7.61c-.59,4.89-1,8.23-2.11,11.53H562.6a1.48,1.48,0,0,1-1.47-1.46V419.28A1.49,1.49,0,0,1,562.6,417.81Z"/><path class="cls-8" d="M586.27,423.84A105.8,105.8,0,0,1,603,436.9a2.23,2.23,0,0,1-.36.05H580.6a76.09,76.09,0,0,0,1.81-11l.47-4.07Z"/><path class="cls-5" d="M604.13,419.28V432a104.22,104.22,0,0,0-15.6-11.85l-3.84-2.29h18A1.5,1.5,0,0,1,604.13,419.28Z"/><path class="cls-5" d="M573.6,442.11c-2.25,4-6,8.89-12.29,16.62l-.27.35c-.49.73-1,1.47-1.43,2.17H538.48a1.48,1.48,0,0,1-1.47-1.47V443.57a1.47,1.47,0,0,1,1.47-1.46Z"/><path class="cls-8" d="M580,443.57v16.21a1.47,1.47,0,0,1-1.46,1.47H564.91c7.4-9.05,11.35-14.52,13.64-19.14A1.45,1.45,0,0,1,580,443.57Z"/><rect class="cls-5" x="500.72" y="430.19" width="19.12" height="42.97" rx="0.5" transform="translate(961.96 -58.6) rotate(90)"/><rect class="cls-5" x="464.56" y="442.22" width="19.12" height="18.92" rx="0.19" transform="translate(925.8 -22.44) rotate(90)"/><rect class="cls-8" x="585.1" y="442.22" width="19.12" height="18.92" rx="0.19" transform="translate(1046.34 -142.98) rotate(90)"/><path class="cls-8" d="M589.58,509.86h-3.83a.57.57,0,0,1-.56-.55v-2a25.12,25.12,0,0,0,4.13,2.46Z"/><path class="cls-8" d="M604.13,508.49v.82a.58.58,0,0,1-.56.55h-.91l.39-.35C603.43,509.16,603.78,508.84,604.13,508.49Z"/><rect class="cls-5" x="464.56" y="490.83" width="19.12" height="18.92" rx="0.19" transform="translate(974.41 26.17) rotate(90)"/><rect class="cls-5" x="476.58" y="454.49" width="19.12" height="42.97" rx="0.5" transform="translate(962.12 -10.17) rotate(90)"/><path class="cls-5" d="M555.86,468.51a32.15,32.15,0,0,0-2.48,17h-39a1.48,1.48,0,0,1-1.46-1.46V467.86a1.48,1.48,0,0,1,1.46-1.46h40a1.46,1.46,0,0,1,1.46,1.46Z"/><path class="cls-8" d="M591.1,466.4c-.76,6.5-1.11,8.28-9.16,18.12l0,.05,0,0c-.2.33-.41.65-.61.94H562.6a1.48,1.48,0,0,1-1.47-1.46V467.86a1.39,1.39,0,0,1,.09-.5,1,1,0,0,1,.18-.32,1.46,1.46,0,0,1,1.2-.64Z"/><path class="cls-8" d="M604.13,467.86V474c-.65-.7-1.32-1.4-2-2.11a58.73,58.73,0,0,0-6.62-5.44h7.2A1.49,1.49,0,0,1,604.13,467.86Z"/><path class="cls-5" d="M570.26,509.83H538.48a1.47,1.47,0,0,1-1.47-1.46V492.18a1.46,1.46,0,0,1,1.47-1.46h16.1C557.62,499.94,564.82,506.2,570.26,509.83Z"/><path class="cls-8" d="M580,501.73v6.64a1.48,1.48,0,0,1-.88,1.35h0l-.14-.06c-.65-.27-14.67-6.27-19.67-18.94h19.26a.89.89,0,0,1,.29,0,13.6,13.6,0,0,0-.15,7.93A13.26,13.26,0,0,0,580,501.73Z"/><rect class="cls-5" x="500.72" y="478.79" width="19.12" height="42.97" rx="0.5" transform="translate(1010.55 -10.01) rotate(90)"/><path class="cls-8" d="M605.12,509.19l-.73.67h-1.73l.39-.35c.38-.35.73-.67,1.08-1,6-5.89,8.72-12.18,8-18.73-.53-5.24-3.31-10.63-8-15.81-.65-.7-1.32-1.4-2-2.11a58.73,58.73,0,0,0-6.62-5.44c-1.34-.94-2.19-1.46-2.28-1.52l-1.78-1.06-.24,2.17c0,.15,0,.29-.06.41-.76,6.5-1.11,8.28-9.16,18.12l0,.05,0,0c-.2.33-.41.65-.61.94a22.82,22.82,0,0,0-2.46,5.21,13.6,13.6,0,0,0-.15,7.93,13.26,13.26,0,0,0,1.32,3.05,18.21,18.21,0,0,0,5.21,5.56,25.12,25.12,0,0,0,4.13,2.46l.26.11H579.4l-.3-.14h0l-.14-.06c-.65-.27-14.67-6.27-19.67-18.94-.29-.7-.53-1.46-.76-2.22-2-6.65-1.06-13.73,2.72-21.14a1,1,0,0,1,.18-.32,46.14,46.14,0,0,1,3.27-5.47l.06-.09.06-.09c0-.05.09-.08.12-.14,7.4-9.05,11.35-14.52,13.64-19.14A30.39,30.39,0,0,0,580.6,437a76.09,76.09,0,0,0,1.81-11l.47-4.07,3.39,2A105.8,105.8,0,0,1,603,436.9l.26.26c11.5,11.06,18.18,22.92,19.32,34.27C623.94,484.69,618.06,497.39,605.12,509.19Z"/><path class="cls-5" d="M605.12,509.19l-.73.67h-1.73l.39-.35c.38-.35.73-.67,1.08-1,6-5.89,8.72-12.18,8-18.73-.53-5.24-3.31-10.63-8-15.81-.65-.7-1.32-1.4-2-2.11a58.73,58.73,0,0,0-6.62-5.44c-1.34-.94-2.19-1.46-2.28-1.52l-1.78-1.06-.24,2.17c0,.15,0,.29-.06.41-.76,6.5-1.11,8.28-9.16,18.12l0,.05,0,0c-.2.33-.41.65-.61.94a22.82,22.82,0,0,0-2.46,5.21,13.6,13.6,0,0,0-.15,7.93,13.26,13.26,0,0,0,1.32,3.05,18.21,18.21,0,0,0,5.21,5.56,25.12,25.12,0,0,0,4.13,2.46l.26.11H579.4l-.3-.14h0l-.14-.06c-.65-.27-14.67-6.27-19.67-18.94-.29-.7-.53-1.46-.76-2.22-2-6.65-1.06-13.73,2.72-21.14a1,1,0,0,1,.18-.32,46.14,46.14,0,0,1,3.27-5.47l.06-.09.06-.09c0-.05.09-.08.12-.14,7.4-9.05,11.35-14.52,13.64-19.14A30.39,30.39,0,0,0,580.6,437a76.09,76.09,0,0,0,1.81-11l.47-4.07,3.39,2A105.8,105.8,0,0,1,603,436.9l.26.26c11.5,11.06,18.18,22.92,19.32,34.27C623.94,484.69,618.06,497.39,605.12,509.19Z"/></g><text class="cls-7" transform="translate(484.81 550.19)">Fi<tspan class="cls-9" x="24.42" y="0">r</tspan><tspan x="34.98" y="0">ewall</tspan></text><g id="Gateway_Modem" data-name="Gateway Modem"><path class="cls-5" d="M516.86,74.59a31.38,31.38,0,0,0-41.43,0,1.61,1.61,0,0,0-.05,2.37l3.52,3.47a1.67,1.67,0,0,0,2.25.07,23,23,0,0,1,30,0,1.67,1.67,0,0,0,2.25-.07L516.9,77A1.61,1.61,0,0,0,516.86,74.59ZM528.3,63A47.51,47.51,0,0,0,464,63a1.63,1.63,0,0,0-.05,2.35l3.5,3.47a1.68,1.68,0,0,0,2.3,0,39.18,39.18,0,0,1,52.83,0,1.67,1.67,0,0,0,2.29,0l3.5-3.47A1.63,1.63,0,0,0,528.3,63Z"/><path class="cls-5" d="M598.58,113.27h-98.8V95.09a6.49,6.49,0,0,0,2.91-5.41,6.55,6.55,0,1,0-13.09,0,6.49,6.49,0,0,0,2.91,5.41v18.18H463a2.56,2.56,0,0,0-2.56,2.56v39a2.56,2.56,0,0,0,2.56,2.56h2.16v.7a2.17,2.17,0,0,0,2.16,2.18h2.93a2.19,2.19,0,0,0,2.18-2.18v-.7h116v.7a2.17,2.17,0,0,0,2.15,2.18h2.94a2.19,2.19,0,0,0,2.18-2.18v-.7h2.88a2.56,2.56,0,0,0,2.56-2.56v-39A2.56,2.56,0,0,0,598.58,113.27ZM493.12,139.1H466.91a2.15,2.15,0,0,1-2.15-2.16,2.17,2.17,0,0,1,2.15-2.18h26.21a2.19,2.19,0,0,1,2.15,2.18A2.16,2.16,0,0,1,493.12,139.1ZM566,145.86a9.39,9.39,0,1,1,9.39-9.39A9.38,9.38,0,0,1,566,145.86Zm21.11,0a9.39,9.39,0,1,1,9.39-9.39A9.38,9.38,0,0,1,587.06,145.86Z"/></g><text class="cls-7" transform="translate(485.15 217.49)">Ro<tspan class="cls-10" x="36.15" y="0">u</tspan><tspan x="54.03" y="0">ter</tspan></text><g id="vLAN"><rect class="cls-11" x="449.05" y="771.34" width="182.35" height="41.71" rx="5.76"/><rect class="cls-12" x="588.21" y="776.72" width="32.61" height="30.8"/><rect class="cls-5" x="463.5" y="812.8" width="152.66" height="6.18"/><rect class="cls-5" x="461.12" y="778.92" width="13.63" height="5.77"/><rect class="cls-5" x="463.29" y="783.82" width="9.29" height="3.46"/><rect class="cls-5" x="486.81" y="778.92" width="13.63" height="5.77"/><rect class="cls-5" x="488.98" y="783.82" width="9.29" height="3.46"/><rect class="cls-5" x="510.5" y="778.92" width="13.63" height="5.77"/><rect class="cls-5" x="512.67" y="783.82" width="9.29" height="3.46"/><rect class="cls-5" x="534.19" y="778.92" width="13.63" height="5.77"/><rect class="cls-5" x="536.36" y="783.82" width="9.29" height="3.46"/><rect class="cls-5" x="557.88" y="778.92" width="13.63" height="5.77"/><rect class="cls-5" x="560.05" y="783.82" width="9.29" height="3.46"/><polyline class="cls-13" points="591.73 801.97 600.87 801.97 609.5 782.21 617.52 782.21"/><polyline class="cls-13" points="618.07 801.97 608.94 801.97 600.31 782.21 592.28 782.21"/></g><rect class="cls-2" x="394.02" y="826.62" width="275.18" height="59.44" rx="12"/><text class="cls-7" transform="translate(485.96 867.68)">S<tspan class="cls-14" x="16.68" y="0">w</tspan><tspan class="cls-15" x="40.05" y="0">i</tspan><tspan x="48.45" y="0">t</tspan><tspan class="cls-14" x="59.55" y="0">c</tspan><tspan x="74.61" y="0">h</tspan></text><rect class="cls-2" x="114.2" y="703.71" width="63.58" height="149.13"/><g id="Server_Tall" data-name="Server Tall"><path class="cls-2" d="M121.88,711V844.58h50.25V711Zm44.28,129.88H125.84v-4h40.32Zm0-8H125.84v-4h40.32Zm0-8H125.84v-4h40.32Zm0-8H125.84v-4h40.32Zm-27.42-21.24a7.26,7.26,0,1,1,7.25,7.26A7.27,7.27,0,0,1,138.74,795.57ZM166.16,727H125.84V715.34h40.32Z"/><path class="cls-16" d="M114.2,703.71V852.84h63.58V703.71Zm52,109.09v4H125.84v-4Zm-27.42-17.23a7.26,7.26,0,1,1,7.25,7.26A7.27,7.27,0,0,1,138.74,795.57Zm27.42,25.24v4H125.84v-4Zm0,8v4H125.84v-4Zm0,8v4H125.84v-4Zm0-109.87H125.84V715.34h40.32Z"/></g><text class="cls-7" transform="translate(99.83 892.04)">Se<tspan class="cls-10" x="33.36" y="0">r</tspan><tspan x="45.66" y="0">ver</tspan></text><rect class="cls-2" x="1407.63" y="440.03" width="119.98" height="73.41"/><g id="Laptop"><g id="Laptop-2" data-name="Laptop"><path class="cls-5" d="M1532.62,523.12h-127l-10.16,7.5v5.62h147.29v-5.62Zm-53.59,10H1459.7a1.3,1.3,0,0,1-1.3-1.3,1.32,1.32,0,0,1,1.3-1.31H1479a1.32,1.32,0,0,1,1.3,1.31A1.3,1.3,0,0,1,1479,533.16ZM1530.64,440a6.71,6.71,0,0,0-4.75-2h-113.5a6.76,6.76,0,0,0-6.74,6.74v74.28h127V444.79A6.71,6.71,0,0,0,1530.64,440ZM1527,513.44H1411.28V444.79a1.07,1.07,0,0,1,.33-.78,1.06,1.06,0,0,1,.78-.33h113.5a1.13,1.13,0,0,1,1.11,1.11Z"/></g><polygon class="cls-17" points="1524.65 511.46 1442.44 511.46 1413.02 511.46 1413.02 445.65 1479.34 445.65 1524.65 445.65 1524.65 511.46"/></g><text class="cls-7" transform="translate(1419.81 571.96)"><tspan class="cls-14">L</tspan><tspan x="16.17" y="0">a</tspan><tspan class="cls-15" x="31.74" y="0">p</tspan><tspan class="cls-14" x="51.27" y="0">t</tspan><tspan x="62.97" y="0">op</tspan></text><rect class="cls-2" x="1407.89" y="630.38" width="119.98" height="73.41"/><g id="Laptop-3" data-name="Laptop"><g id="Laptop-4" data-name="Laptop"><path class="cls-5" d="M1532.88,713.47h-127l-10.17,7.5v5.62h147.3V721Zm-53.59,10H1460a1.31,1.31,0,0,1,0-2.61h19.33a1.31,1.31,0,0,1,0,2.61Zm51.62-93.13a6.71,6.71,0,0,0-4.76-2h-113.5a6.74,6.74,0,0,0-6.73,6.74v74.28h127V635.14A6.71,6.71,0,0,0,1530.91,630.38Zm-3.65,73.41H1411.54V635.14a1.13,1.13,0,0,1,1.11-1.11h113.5a1.13,1.13,0,0,1,1.11,1.11Z"/></g><polygon class="cls-17" points="1524.92 701.81 1442.71 701.81 1413.29 701.81 1413.29 636 1479.6 636 1524.92 636 1524.92 701.81"/></g><text class="cls-7" transform="translate(1420.07 762.31)"><tspan class="cls-14">L</tspan><tspan x="16.17" y="0">a</tspan><tspan class="cls-15" x="31.74" y="0">p</tspan><tspan class="cls-14" x="51.27" y="0">t</tspan><tspan x="62.97" y="0">op</tspan></text><rect class="cls-2" x="1407.36" y="820.73" width="119.98" height="73.41"/><g id="Laptop-5" data-name="Laptop"><g id="Laptop-6" data-name="Laptop"><path class="cls-5" d="M1532.35,903.82h-127l-10.17,7.5v5.62h147.3v-5.62Zm-53.58,10h-19.33a1.31,1.31,0,0,1,0-2.61h19.33a1.31,1.31,0,0,1,0,2.61Zm51.61-93.13a6.71,6.71,0,0,0-4.76-2H1412.13a6.74,6.74,0,0,0-6.74,6.74v74.27h127V825.49A6.71,6.71,0,0,0,1530.38,820.73Zm-3.64,73.41H1411V825.49a1.11,1.11,0,0,1,.33-.78,1.08,1.08,0,0,1,.79-.33h113.49a1.1,1.1,0,0,1,.79.33,1.11,1.11,0,0,1,.33.78Z"/></g><polygon class="cls-17" points="1524.39 892.16 1442.18 892.16 1412.76 892.16 1412.76 826.34 1479.07 826.34 1524.39 826.34 1524.39 892.16"/></g><text class="cls-7" transform="translate(1419.54 952.66)"><tspan class="cls-14">L</tspan><tspan x="16.17" y="0">a</tspan><tspan class="cls-15" x="31.74" y="0">p</tspan><tspan class="cls-14" x="51.27" y="0">t</tspan><tspan x="62.97" y="0">op</tspan></text><g id="Mobile_Apps" data-name="Mobile Apps"><path class="cls-5" d="M1505.64,983.38H1440.1c-7.76,0-14.06,5.61-14.06,12.56v108.75c0,6.94,6.3,12.56,14.06,12.56h65.54c7.77,0,14.06-5.62,14.06-12.56V995.94C1519.7,989,1513.41,983.38,1505.64,983.38Zm-29.74,8a.93.93,0,1,1-1,.92A1,1,0,0,1,1475.9,991.4Zm-2.91,0a.93.93,0,1,1,0,1.86.93.93,0,1,1,0-1.86Zm-2.92,0a.93.93,0,1,1-1,.92A1,1,0,0,1,1470.07,991.4Zm2.8,119.58a7.25,7.25,0,1,1,7.24-7.25A7.25,7.25,0,0,1,1472.87,1111Zm38.72-29a9.59,9.59,0,0,1-9.59,9.59h-57.93a9.59,9.59,0,0,1-9.59-9.59v-75.21a9.58,9.58,0,0,1,9.59-9.58H1502a9.59,9.59,0,0,1,9.59,9.58Z"/></g><text class="cls-7" transform="translate(1434.2 1163.23)"><tspan class="cls-18">T</tspan><tspan x="13.89" y="0">ablet</tspan></text><line class="cls-1" x1="165.31" y1="950.15" x2="1039.43" y2="948.14"/><line class="cls-1" x1="1037.43" y1="1029.32" x2="1037.43" y2="948.15"/><line class="cls-1" x1="593.26" y1="1041.23" x2="593.26" y2="947.45"/><line class="cls-1" x1="163.28" y1="1043.14" x2="163.28" y2="948.15"/><line class="cls-1" x1="376.19" y1="1042.93" x2="376.19" y2="949.15"/><line class="cls-1" x1="822.7" y1="1046" x2="822.7" y2="946.09"/><rect class="cls-17" x="108.33" y="1046.75" width="109.91" height="70.42"/><g id="Server_Tall-2" data-name="Server Tall"><path class="cls-2" d="M229.29,1033.11V1138.6H261.7V1033.11Zm28.56,102.52h-26v-3.15h26Zm0-6.32h-26v-3.15h26Zm0-6.31h-26v-3.16h26Zm0-6.32h-26v-3.17h26Zm-17.68-16.77c0-3.15,2.1-5.73,4.68-5.73s4.68,2.58,4.68,5.73-2.1,5.73-4.68,5.73S240.17,1103.08,240.17,1099.91Zm17.68-54.16h-26v-9.18h26Z"/><path class="cls-16" d="M224.34,1027.4v117.72h41V1027.4Zm33.51,86.11v3.17h-26v-3.17Zm-17.68-13.6c0-3.15,2.1-5.73,4.68-5.73s4.68,2.58,4.68,5.73-2.1,5.73-4.68,5.73S240.17,1103.08,240.17,1099.91Zm17.68,19.93V1123h-26v-3.16Zm0,6.32v3.15h-26v-3.15Zm0,6.32v3.15h-26v-3.15Zm0-86.73h-26v-9.18h26Z"/><circle class="cls-2" cx="245.12" cy="1100.91" r="6.44"/></g><g id="Desktop"><path class="cls-5" d="M218.68,1040.28H107.88a5.65,5.65,0,0,0-5.66,5.66v72.13a5.66,5.66,0,0,0,5.66,5.66h110.8a5.66,5.66,0,0,0,5.66-5.66v-72.13A5.65,5.65,0,0,0,218.68,1040.28Zm-56.33,80.29a2.89,2.89,0,1,1,2.89-2.89A2.88,2.88,0,0,1,162.35,1120.57Zm55.89-12.68a5,5,0,0,1-4.77,4.64H111.82c-2.45,0-3.49-2.24-3.49-4.64V1050.5c0-2.4,1-4.11,3.49-4.11H213.47c2.45,0,4.77,1.71,4.77,4.11ZM187.58,1140h-8.34a2.92,2.92,0,0,1-2.75-3l-2-7.27a3,3,0,0,0-3.16-2.94H154a3,3,0,0,0-3.15,3l-2,7.3a2.84,2.84,0,0,1-2.74,2.94h-7.88a3.06,3.06,0,0,0,0,6.11h49.35a3.06,3.06,0,0,0,0-6.11Z"/></g><g id="Server_Tall-3" data-name="Server Tall"><path class="cls-2" d="M71.72,1033.25v105.48h32.41V1033.25Zm28.56,102.52h-26v-3.15h26Zm0-6.33h-26v-3.14h26Zm0-6.31h-26V1120h26Zm0-6.32h-26v-3.16h26Zm-17.69-16.76c0-3.16,2.11-5.73,4.69-5.73s4.68,2.57,4.68,5.73-2.1,5.73-4.68,5.73S82.59,1103.21,82.59,1100.05Zm17.69-54.16h-26v-9.18h26Z"/><path class="cls-16" d="M66.77,1027.53v117.72h41V1027.53Zm33.51,86.12v3.16h-26v-3.16Zm-17.69-13.6c0-3.16,2.11-5.73,4.69-5.73s4.68,2.57,4.68,5.73-2.1,5.73-4.68,5.73S82.59,1103.21,82.59,1100.05ZM100.28,1120v3.16h-26V1120Zm0,6.33v3.14h-26v-3.14Zm0,6.32v3.15h-26v-3.15Zm0-86.73h-26v-9.18h26Z"/><circle class="cls-2" cx="87.55" cy="1100.05" r="6.44"/></g><text class="cls-19" transform="translate(79.3 1181.63)">W<tspan class="cls-20" x="27.45" y="0">orkstation</tspan></text><rect class="cls-17" x="325.05" y="1046.35" width="109.91" height="70.42"/><g id="Server_Tall-4" data-name="Server Tall"><path class="cls-2" d="M446,1032.71V1138.2h32.41V1032.71Zm28.56,102.52h-26v-3.15h26Zm0-6.32h-26v-3.15h26Zm0-6.31h-26v-3.17h26Zm0-6.32h-26v-3.17h26Zm-17.68-16.77c0-3.16,2.1-5.73,4.68-5.73s4.68,2.57,4.68,5.73-2.1,5.73-4.68,5.73S456.89,1102.68,456.89,1099.51Zm17.68-54.16h-26v-9.18h26Z"/><path class="cls-16" d="M441.06,1027v117.73h41V1027Zm33.51,86.12v3.17h-26v-3.17Zm-17.68-13.6c0-3.16,2.1-5.73,4.68-5.73s4.68,2.57,4.68,5.73-2.1,5.73-4.68,5.73S456.89,1102.68,456.89,1099.51Zm17.68,19.92v3.17h-26v-3.17Zm0,6.33v3.15h-26v-3.15Zm0,6.32v3.15h-26v-3.15Zm0-86.73h-26v-9.18h26Z"/><circle class="cls-2" cx="461.84" cy="1100.51" r="6.44"/></g><g id="Desktop-2" data-name="Desktop"><path class="cls-21" d="M435.4,1039.88H324.6a5.66,5.66,0,0,0-5.66,5.66v72.13a5.67,5.67,0,0,0,5.66,5.66H435.4a5.66,5.66,0,0,0,5.66-5.66v-72.13A5.65,5.65,0,0,0,435.4,1039.88Zm-56.32,80.29a2.89,2.89,0,1,1,2.89-2.89A2.89,2.89,0,0,1,379.08,1120.17ZM435,1107.49a5,5,0,0,1-4.77,4.64H328.54c-2.45,0-3.49-2.25-3.49-4.64V1050.1c0-2.4,1-4.12,3.49-4.12H430.19c2.45,0,4.77,1.72,4.77,4.12Zm-30.66,32.12H396a2.92,2.92,0,0,1-2.75-3l-1.95-7.27a3,3,0,0,0-3.16-2.94H370.68a3,3,0,0,0-3.16,3l-1.95,7.3a2.84,2.84,0,0,1-2.74,2.94H355a3.06,3.06,0,0,0,0,6.11H404.3a3.06,3.06,0,0,0,0-6.11Z"/></g><g id="Server_Tall-5" data-name="Server Tall"><path class="cls-2" d="M288.44,1032.85v105.48h32.41V1032.85ZM317,1135.37H291v-3.15h26Zm0-6.33H291v-3.14h26Zm0-6.31H291v-3.16h26Zm0-6.32H291v-3.16h26Zm-17.69-16.76c0-3.16,2.11-5.73,4.69-5.73s4.68,2.57,4.68,5.73-2.1,5.73-4.68,5.73S299.31,1102.81,299.31,1099.65ZM317,1045.49H291v-9.18h26Z"/><path class="cls-16" d="M283.49,1027.13v117.72h41V1027.13ZM317,1113.25v3.16H291v-3.16Zm-17.69-13.6c0-3.16,2.11-5.73,4.69-5.73s4.68,2.57,4.68,5.73-2.1,5.73-4.68,5.73S299.31,1102.81,299.31,1099.65ZM317,1119.57v3.16H291v-3.16Zm0,6.33V1129H291v-3.14Zm0,6.32v3.15H291v-3.15Zm0-86.73H291v-9.18h26Z"/><circle class="cls-2" cx="304.27" cy="1099.65" r="6.44"/></g><text class="cls-19" transform="translate(296.02 1181.23)">W<tspan class="cls-20" x="27.45" y="0">orkstation</tspan></text><rect class="cls-17" x="542.12" y="1046.09" width="109.91" height="70.42"/><g id="Server_Tall-6" data-name="Server Tall"><path class="cls-2" d="M663.09,1032.45v105.48H695.5V1032.45ZM691.65,1135h-26v-3.15h26Zm0-6.33h-26v-3.14h26Zm0-6.31h-26v-3.16h26Zm0-6.32h-26v-3.16h26ZM674,1099.25c0-3.16,2.11-5.73,4.69-5.73s4.68,2.57,4.68,5.73-2.1,5.73-4.68,5.73S674,1102.41,674,1099.25Zm17.69-54.16h-26v-9.18h26Z"/><path class="cls-16" d="M658.14,1026.73v117.72h41V1026.73Zm33.51,86.12V1116h-26v-3.16ZM674,1099.25c0-3.16,2.11-5.73,4.69-5.73s4.68,2.57,4.68,5.73-2.1,5.73-4.68,5.73S674,1102.41,674,1099.25Zm17.69,19.92v3.16h-26v-3.16Zm0,6.33v3.14h-26v-3.14Zm0,6.32V1135h-26v-3.15Zm0-86.73h-26v-9.18h26Z"/><circle class="cls-2" cx="678.92" cy="1100.25" r="6.44"/></g><g id="Desktop-3" data-name="Desktop"><path class="cls-5" d="M652.48,1039.61H541.68a5.66,5.66,0,0,0-5.66,5.67v72.12a5.65,5.65,0,0,0,5.66,5.66h110.8a5.65,5.65,0,0,0,5.66-5.66v-72.12A5.66,5.66,0,0,0,652.48,1039.61Zm-56.33,80.3A2.89,2.89,0,1,1,599,1117,2.9,2.9,0,0,1,596.15,1119.91ZM652,1107.22a5,5,0,0,1-4.76,4.65H545.62c-2.45,0-3.5-2.25-3.5-4.65v-57.38c0-2.4,1-4.12,3.5-4.12H647.27c2.45,0,4.76,1.72,4.76,4.12Zm-30.66,32.13H613a2.92,2.92,0,0,1-2.74-3l-2-7.26a3,3,0,0,0-3.15-2.94H587.75a3,3,0,0,0-3.16,3l-1.94,7.3a2.84,2.84,0,0,1-2.74,2.94H572a3.05,3.05,0,0,0,0,6.1h49.34a3.05,3.05,0,0,0,0-6.1Z"/></g><g id="Server_Tall-7" data-name="Server Tall"><path class="cls-2" d="M505.52,1032.58v105.49h32.41V1032.58Zm28.56,102.52h-26V1132h26Zm0-6.32h-26v-3.15h26Zm0-6.31h-26v-3.16h26Zm0-6.32h-26V1113h26Zm-17.69-16.77c0-3.15,2.11-5.72,4.68-5.72s4.69,2.57,4.69,5.72-2.1,5.73-4.69,5.73S516.39,1102.55,516.39,1099.38Zm17.69-54.16h-26V1036h26Z"/><path class="cls-22" d="M500.57,1026.87v117.72h41V1026.87ZM534.08,1113v3.16h-26V1113Zm-17.69-13.61c0-3.15,2.11-5.72,4.68-5.72s4.69,2.57,4.69,5.72-2.1,5.73-4.69,5.73S516.39,1102.55,516.39,1099.38Zm17.69,19.93v3.16h-26v-3.16Zm0,6.32v3.15h-26v-3.15Zm0,6.32v3.15h-26V1132Zm0-86.73h-26V1036h26Z"/><circle class="cls-2" cx="521.35" cy="1099.38" r="6.44"/></g><text class="cls-19" transform="translate(513.1 1180.97)">W<tspan class="cls-20" x="27.45" y="0">orkstation</tspan></text><rect class="cls-17" x="769.36" y="1047.22" width="109.91" height="70.42"/><g id="Server_Tall-8" data-name="Server Tall"><path class="cls-2" d="M890.33,1033.57v105.49h32.41V1033.57Zm28.56,102.53h-26V1133h26Zm0-6.33h-26v-3.15h26Zm0-6.31h-26v-3.16h26Zm0-6.32h-26V1114h26Zm-17.69-16.76c0-3.16,2.11-5.73,4.69-5.73s4.68,2.57,4.68,5.73-2.1,5.73-4.68,5.73S901.2,1103.54,901.2,1100.38Zm17.69-54.16h-26V1037h26Z"/><path class="cls-16" d="M885.38,1027.86v117.72h41V1027.86ZM918.89,1114v3.16h-26V1114Zm-17.69-13.6c0-3.16,2.11-5.73,4.69-5.73s4.68,2.57,4.68,5.73-2.1,5.73-4.68,5.73S901.2,1103.54,901.2,1100.38Zm17.69,19.92v3.16h-26v-3.16Zm0,6.32v3.15h-26v-3.15Zm0,6.33v3.15h-26V1133Zm0-86.73h-26V1037h26Z"/><circle class="cls-2" cx="906.16" cy="1101.38" r="6.44"/></g><g id="Desktop-4" data-name="Desktop"><path class="cls-5" d="M879.72,1040.74H768.92a5.66,5.66,0,0,0-5.66,5.66v72.13a5.65,5.65,0,0,0,5.66,5.66h110.8a5.66,5.66,0,0,0,5.66-5.66V1046.4A5.67,5.67,0,0,0,879.72,1040.74ZM823.39,1121a2.89,2.89,0,1,1,2.89-2.89A2.9,2.9,0,0,1,823.39,1121Zm55.88-12.69a5,5,0,0,1-4.76,4.65H772.86c-2.45,0-3.5-2.25-3.5-4.65V1051c0-2.39,1-4.11,3.5-4.11H874.51c2.45,0,4.76,1.72,4.76,4.11Zm-30.66,32.12h-8.34a2.91,2.91,0,0,1-2.74-3l-2-7.27a3,3,0,0,0-3.16-2.93H815a3,3,0,0,0-3.16,3l-1.94,7.31a2.84,2.84,0,0,1-2.75,2.93h-7.87a3.06,3.06,0,0,0,0,6.11h49.34a3.06,3.06,0,0,0,0-6.11Z"/></g><g id="Server_Tall-9" data-name="Server Tall"><path class="cls-2" d="M732.76,1033.71V1139.2h32.4V1033.71Zm28.55,102.52h-26v-3.15h26Zm0-6.32h-26v-3.15h26Zm0-6.31h-26v-3.17h26Zm0-6.32h-26v-3.17h26Zm-17.68-16.77c0-3.16,2.1-5.73,4.68-5.73s4.68,2.57,4.68,5.73-2.09,5.73-4.68,5.73S743.63,1103.68,743.63,1100.51Zm17.68-54.16h-26v-9.18h26Z"/><path class="cls-16" d="M727.8,1028v117.73h41V1028Zm33.51,86.12v3.17h-26v-3.17Zm-17.68-13.6c0-3.16,2.1-5.73,4.68-5.73s4.68,2.57,4.68,5.73-2.09,5.73-4.68,5.73S743.63,1103.68,743.63,1100.51Zm17.68,19.92v3.17h-26v-3.17Zm0,6.33v3.15h-26v-3.15Zm0,6.32v3.15h-26v-3.15Zm0-86.73h-26v-9.18h26Z"/><circle class="cls-2" cx="748.58" cy="1100.51" r="6.44"/></g><text class="cls-19" transform="translate(740.34 1182.1)">W<tspan class="cls-20" x="27.45" y="0">orkstation</tspan></text><text class="cls-7" transform="translate(985.54 1181.17) rotate(-0.56)">Phone</text><path class="cls-5" d="M1085.33,1028.2H968.05a6,6,0,0,0-5.94,5.94v96.93a6,6,0,0,0,5.94,5.94h117.28a6,6,0,0,0,5.94-5.94v-96.93A6,6,0,0,0,1085.33,1028.2ZM1012,1117.75a11.46,11.46,0,0,1-11.43,11.42h-18a11.45,11.45,0,0,1-11.42-11.42v-70.28A11.46,11.46,0,0,1,982.56,1036h18a11.46,11.46,0,0,1,11.43,11.43Zm25.43,9.24a3.73,3.73,0,0,1-3.72,3.72h-7.23a3.73,3.73,0,0,1-3.72-3.72v-7.23a3.73,3.73,0,0,1,3.72-3.72h7.23a3.73,3.73,0,0,1,3.72,3.72Zm0-20.18a3.73,3.73,0,0,1-3.72,3.72h-7.23a3.73,3.73,0,0,1-3.72-3.72v-7.23a3.73,3.73,0,0,1,3.72-3.72h7.23a3.73,3.73,0,0,1,3.72,3.72Zm0-20.17a3.72,3.72,0,0,1-3.72,3.71h-7.23a3.72,3.72,0,0,1-3.72-3.71v-7.24a3.73,3.73,0,0,1,3.72-3.72h7.23a3.73,3.73,0,0,1,3.72,3.72Zm0-21a3.72,3.72,0,0,1-3.72,3.71h-7.23a3.72,3.72,0,0,1-3.72-3.71v-7.24a3.73,3.73,0,0,1,3.72-3.72h7.23a3.73,3.73,0,0,1,3.72,3.72Zm23.43,61.35a3.73,3.73,0,0,1-3.72,3.72h-7.24a3.72,3.72,0,0,1-3.71-3.72v-7.23a3.72,3.72,0,0,1,3.71-3.72h7.24a3.73,3.73,0,0,1,3.72,3.72Zm0-20.18a3.73,3.73,0,0,1-3.72,3.72h-7.24a3.72,3.72,0,0,1-3.71-3.72v-7.23a3.72,3.72,0,0,1,3.71-3.72h7.24a3.73,3.73,0,0,1,3.72,3.72Zm0-20.17a3.73,3.73,0,0,1-3.72,3.71h-7.24a3.72,3.72,0,0,1-3.71-3.71v-7.24a3.72,3.72,0,0,1,3.71-3.72h7.24a3.73,3.73,0,0,1,3.72,3.72Zm0-21a3.73,3.73,0,0,1-3.72,3.71h-7.24a3.72,3.72,0,0,1-3.71-3.71v-7.24a3.72,3.72,0,0,1,3.71-3.72h7.24a3.73,3.73,0,0,1,3.72,3.72Zm23.42,61.35a3.72,3.72,0,0,1-3.71,3.72h-7.24a3.73,3.73,0,0,1-3.72-3.72v-7.23a3.73,3.73,0,0,1,3.72-3.72h7.24a3.72,3.72,0,0,1,3.71,3.72Zm0-20.18a3.72,3.72,0,0,1-3.71,3.72h-7.24a3.73,3.73,0,0,1-3.72-3.72v-7.23a3.73,3.73,0,0,1,3.72-3.72h7.24a3.72,3.72,0,0,1,3.71,3.72Zm0-20.17a3.72,3.72,0,0,1-3.71,3.71h-7.24a3.73,3.73,0,0,1-3.72-3.71v-7.24a3.73,3.73,0,0,1,3.72-3.72h7.24a3.72,3.72,0,0,1,3.71,3.72Zm0-21a3.72,3.72,0,0,1-3.71,3.71h-7.24a3.73,3.73,0,0,1-3.72-3.71v-7.24a3.73,3.73,0,0,1,3.72-3.72h7.24a3.72,3.72,0,0,1,3.71,3.72Zm1-21a3.72,3.72,0,0,1-3.72,3.71h-57.33a3.72,3.72,0,0,1-3.72-3.71v-7.95a3.72,3.72,0,0,1,3.72-3.71h57.33a3.72,3.72,0,0,1,3.72,3.71Z"/><g id="Gateway_Modem-2" data-name="Gateway Modem"><path class="cls-5" d="M1042.84,759.81H999.43a3.77,3.77,0,0,0-3.76,3.76v57.27a3.76,3.76,0,0,0,3.76,3.75h3.17v1a3.19,3.19,0,0,0,3.17,3.2h4.3a3.22,3.22,0,0,0,3.21-3.2v-1h170.46v1a3.19,3.19,0,0,0,3.17,3.2h4.31a3.22,3.22,0,0,0,3.2-3.2v-1h4.24a3.76,3.76,0,0,0,3.76-3.75V763.57a3.77,3.77,0,0,0-3.76-3.76H1053.52m-9.78,37.94h-38.49a3.19,3.19,0,0,1,0-6.37h38.49a3.19,3.19,0,0,1,0,6.37Zm107,9.93a13.79,13.79,0,1,1,13.78-13.79A13.78,13.78,0,0,1,1150.73,807.68Zm31,0a13.79,13.79,0,1,1,13.78-13.79A13.78,13.78,0,0,1,1181.74,807.68Z"/></g><line class="cls-5" x1="1027.85" y1="679.15" x2="1028.73" y2="769.23"/><path class="cls-23" d="M1020.35,679.15l.77,78.87.11,11.21c.09,9.65,15.09,9.67,15,0l-.77-78.87-.11-11.21c-.09-9.65-15.09-9.67-15,0Z"/><line class="cls-5" x1="1164.08" y1="677.83" x2="1164.95" y2="767.91"/><path class="cls-23" d="M1156.58,677.83l.76,78.87.11,11.21c.09,9.65,15.09,9.67,15,0l-.77-78.87-.1-11.21c-.1-9.65-15.1-9.67-15,0Z"/><g id="wifi-5" data-name="wifi"><path class="cls-5" d="M1094.85,617.71A76,76,0,0,1,1148.9,640a5.34,5.34,0,0,0,7.38,0,5.21,5.21,0,0,0,0-7.36,87.25,87.25,0,0,0-122.86,0,5.2,5.2,0,0,0,7.35,7.36,76,76,0,0,1,54.08-22.29"/><path class="cls-5" d="M1132.06,661a5.17,5.17,0,0,0,3.7-1.51,5.11,5.11,0,0,0,0-7.31,58.09,58.09,0,0,0-81.84,0,5.18,5.18,0,0,0,0,7.31,5.13,5.13,0,0,0,3.69,1.51,5.08,5.08,0,0,0,3.66-1.51,47.67,47.67,0,0,1,67.12,0,5.2,5.2,0,0,0,3.67,1.51"/><path class="cls-5" d="M1072.49,675.74a5.21,5.21,0,0,0,8.89,3.65,19.15,19.15,0,0,1,26.93,0,5.19,5.19,0,0,0,3.66,1.52,5.26,5.26,0,0,0,3.7-1.52,5,5,0,0,0,1.52-3.63,5.16,5.16,0,0,0-1.52-3.69,29.63,29.63,0,0,0-41.66,0,5.27,5.27,0,0,0-1.52,3.67"/><circle class="cls-5" cx="1094.85" cy="699.73" r="11.35"/></g><rect class="cls-2" x="967.45" y="834.02" width="263.18" height="59.44" rx="12"/><text class="cls-7" transform="translate(1044.62 867.22) scale(0.96 1)">Wi<tspan class="cls-24" x="36.06" y="0">r</tspan><tspan x="46.62" y="0">eless </tspan><tspan x="10.23" y="36">Access </tspan><tspan x="21.62" y="72">Point</tspan></text><text class="cls-7" transform="translate(287.66 738.27)">NIDS</text><g id="Control_Server" data-name="Control Server"><path class="cls-3" d="M354.69,655.53H291.77c-.85,0-1.54.5-1.54,1.11V669c0,.62.69,1.13,1.54,1.13h62.92c.85,0,1.53-.51,1.53-1.13V656.64C356.22,656,355.54,655.53,354.69,655.53Zm-55.43,11.86a5.24,5.24,0,0,1-1.45.22,5.5,5.5,0,0,1-1.47-.22,4.79,4.79,0,1,1,2.92,0Zm12.47-2.21a.89.89,0,0,1-.94.82.88.88,0,0,1-.92-.82v-4.49a.88.88,0,0,1,.92-.83.89.89,0,0,1,.94.83Zm3.57,0a.94.94,0,0,1-1.87,0v-4.49a.94.94,0,0,1,1.87,0Zm3.57,0a.94.94,0,0,1-1.87,0v-4.49a.94.94,0,0,1,1.87,0Zm33.65.6a.15.15,0,0,1-.14.16H341.2a.15.15,0,0,1-.14-.16v-5.91a.15.15,0,0,1,.14-.16h11.18a.15.15,0,0,1,.14.16Z"/><path class="cls-3" d="M354.69,638.39H291.77c-.85,0-1.54.5-1.54,1.12v12.36c0,.62.69,1.12,1.54,1.12h62.92c.85,0,1.53-.5,1.53-1.12V639.51C356.22,638.89,355.54,638.39,354.69,638.39Zm-55.43,11.86a4.89,4.89,0,0,1-1.45.22,5.13,5.13,0,0,1-1.47-.22,4.79,4.79,0,1,1,2.92,0ZM311.73,648a.89.89,0,0,1-.94.82.88.88,0,0,1-.92-.82v-4.49a.88.88,0,0,1,.92-.82.89.89,0,0,1,.94.82Zm3.57,0a.94.94,0,0,1-1.87,0v-4.49a.94.94,0,0,1,1.87,0Zm3.57,0a.94.94,0,0,1-1.87,0v-4.49a.94.94,0,0,1,1.87,0Zm33.65.6a.15.15,0,0,1-.14.16H341.2a.15.15,0,0,1-.14-.16v-5.91a.15.15,0,0,1,.14-.15h11.18a.15.15,0,0,1,.14.15Z"/><path class="cls-3" d="M354.69,621.25H291.77c-.85,0-1.54.5-1.54,1.12v12.36c0,.62.69,1.12,1.54,1.12h62.92c.85,0,1.53-.5,1.53-1.12V622.37C356.22,621.75,355.54,621.25,354.69,621.25Zm-55.43,11.86a4.89,4.89,0,0,1-1.45.22,5.13,5.13,0,0,1-1.47-.22,4.79,4.79,0,1,1,2.92,0Zm12.47-2.21a.89.89,0,0,1-.94.82.88.88,0,0,1-.92-.82v-4.49a.88.88,0,0,1,.92-.82.89.89,0,0,1,.94.82Zm3.57,0a.94.94,0,0,1-1.87,0v-4.49a.94.94,0,0,1,1.87,0Zm3.57,0a.94.94,0,0,1-1.87,0v-4.49a.94.94,0,0,1,1.87,0Zm33.65.6a.15.15,0,0,1-.14.16H341.2a.15.15,0,0,1-.14-.16v-5.9a.15.15,0,0,1,.14-.16h11.18a.15.15,0,0,1,.14.16Z"/><path class="cls-3" d="M354.69,604.11H291.77c-.85,0-1.54.5-1.54,1.12v12.36c0,.62.69,1.12,1.54,1.12h62.92c.85,0,1.53-.5,1.53-1.12V605.23C356.22,604.61,355.54,604.11,354.69,604.11ZM299.26,616a4.89,4.89,0,0,1-1.45.22,5.13,5.13,0,0,1-1.47-.22,4.79,4.79,0,1,1,2.92,0Zm12.47-2.21a.9.9,0,0,1-.94.83.88.88,0,0,1-.92-.83v-4.49a.88.88,0,0,1,.92-.82.89.89,0,0,1,.94.82Zm3.57,0a.94.94,0,0,1-1.87,0v-4.49a.94.94,0,0,1,1.87,0Zm3.57,0a.94.94,0,0,1-1.87,0v-4.49a.94.94,0,0,1,1.87,0Zm33.65.6a.15.15,0,0,1-.14.16H341.2a.15.15,0,0,1-.14-.16v-5.9a.15.15,0,0,1,.14-.16h11.18a.15.15,0,0,1,.14.16Z"/><path class="cls-3" d="M354.69,587H291.77c-.85,0-1.54.51-1.54,1.12v12.36c0,.62.69,1.13,1.54,1.13h62.92c.85,0,1.53-.51,1.53-1.13V588.09C356.22,587.48,355.54,587,354.69,587Zm-55.32,11.94a4.78,4.78,0,0,1-1.48.23,4.94,4.94,0,0,1-1.49-.23,4.88,4.88,0,1,1,3,0Zm12.69-2.24a1,1,0,0,1-1.9,0V592.1a1,1,0,0,1,1.9,0Zm3.63,0a1,1,0,0,1-1.9,0V592.1a1,1,0,0,1,1.9,0Zm3.63,0a1,1,0,0,1-1.9,0V592.1a1,1,0,0,1,1.9,0Zm33.2.55a.15.15,0,0,1-.14.16H341.2a.15.15,0,0,1-.14-.16v-5.9a.15.15,0,0,1,.14-.16h11.18a.15.15,0,0,1,.14.16Z"/><path class="cls-3" d="M356.42,561.58H290c-3.21,0-5.84,2.94-5.84,6.54V689c0,3.59,2.63,6.53,5.84,6.53h66.39c3.22,0,5.85-2.94,5.85-6.53V568.12C362.27,564.52,359.64,561.58,356.42,561.58Zm2.15,127.16a1.39,1.39,0,0,1-1.39,1.37h-67.9a1.38,1.38,0,0,1-1.39-1.37v-120a1.37,1.37,0,0,1,1.39-1.36h67.9a1.38,1.38,0,0,1,1.39,1.36Z"/><path class="cls-3" d="M354.69,672.66H291.77c-.85,0-1.54.51-1.54,1.12v12.36c0,.62.69,1.13,1.54,1.13h62.92c.85,0,1.53-.51,1.53-1.13V673.78C356.22,673.17,355.54,672.66,354.69,672.66Zm-55.43,11.86a4.89,4.89,0,0,1-1.45.23,5.13,5.13,0,0,1-1.47-.23,4.79,4.79,0,1,1,2.92,0Zm12.47-2.21a.89.89,0,0,1-.94.83.88.88,0,0,1-.92-.83v-4.49a.88.88,0,0,1,.92-.82.89.89,0,0,1,.94.82Zm3.57,0a.94.94,0,0,1-1.87,0v-4.49a.94.94,0,0,1,1.87,0Zm3.57,0a.94.94,0,0,1-1.87,0v-4.49a.94.94,0,0,1,1.87,0Zm33.65.6a.15.15,0,0,1-.14.16H341.2a.15.15,0,0,1-.14-.16V677a.15.15,0,0,1,.14-.16h11.18a.15.15,0,0,1,.14.16Z"/><path class="cls-3" d="M354.69,569.84H291.77c-.85,0-1.54.5-1.54,1.11v12.36c0,.62.69,1.13,1.54,1.13h62.92c.85,0,1.53-.51,1.53-1.13V571C356.22,570.34,355.54,569.84,354.69,569.84Zm-55.43,11.85a4.89,4.89,0,0,1-1.45.23,5.13,5.13,0,0,1-1.47-.23,4.79,4.79,0,1,1,2.92,0Zm12.47-2.2a.89.89,0,0,1-.94.82.88.88,0,0,1-.92-.82V575a.88.88,0,0,1,.92-.83.89.89,0,0,1,.94.83Zm3.57,0a.94.94,0,0,1-1.87,0V575a.94.94,0,0,1,1.87,0Zm3.57,0a.94.94,0,0,1-1.87,0V575a.94.94,0,0,1,1.87,0Zm33.65.6a.15.15,0,0,1-.14.16H341.2a.15.15,0,0,1-.14-.16v-5.91a.15.15,0,0,1,.14-.16h11.18a.15.15,0,0,1,.14.16Z"/></g><rect class="cls-2" x="452.36" y="631.66" width="163.43" height="43.52"/><text class="cls-7" transform="translate(504.58 665.93)">NIPS</text></g></svg>