<?xml version="1.0" encoding="utf-8"?>
<!-- Generator: Adobe Illustrator 26.0.1, SVG Export Plug-In . SVG Version: 6.00 Build 0)  -->
<svg version="1.1" xmlns="http://www.w3.org/2000/svg" xmlns:xlink="http://www.w3.org/1999/xlink" x="0px" y="0px" width="792px"
	 height="612px" viewBox="0 0 792 612" style="enable-background:new 0 0 792 612;" xml:space="preserve">
<style type="text/css">
	.st0{fill:none;}
	.st1{fill:none;stroke:#606060;stroke-width:0.7967;stroke-miterlimit:10;}
	.st2{fill:#606060;}
	.st3{fill:#007EB1;}
</style>
<g id="Layer_1">
	<g>
		
			<ellipse transform="matrix(0.7071 -0.7071 0.7071 0.7071 -113.5276 382.792)" class="st0" cx="405.3" cy="328.4" rx="188.1" ry="188.1"/>
		<path d="M408.6,120l3.1,0.1l8.3,20.5l-4.1-0.1l-1.8-4.7l-8.8-0.2l-1.9,4.6l-4-0.1L408.6,120z M412.9,132.7l-2.9-8.3l-3.4,8.2
			L412.9,132.7z"/>
		<path d="M453.3,125.5l7.6,2.1c0.7,0.2,1.4,0.5,2.1,0.9c0.7,0.4,1.2,0.8,1.7,1.4c0.5,0.5,0.8,1.2,1,1.9c0.2,0.7,0.2,1.5-0.1,2.4
			c-0.3,1.1-0.9,1.9-1.7,2.5c-0.8,0.5-1.8,0.8-2.9,0.9l0,0.1c0.6,0.2,1.1,0.6,1.6,1c0.5,0.4,0.8,0.9,1.1,1.4
			c0.3,0.5,0.4,1.1,0.5,1.7c0.1,0.6,0,1.2-0.2,1.8c-0.3,1.1-0.7,1.9-1.4,2.5c-0.6,0.6-1.3,1-2.1,1.3c-0.8,0.2-1.7,0.3-2.6,0.3
			c-0.9-0.1-1.9-0.2-2.8-0.5l-7.1-1.9L453.3,125.5z M452.3,143l3.2,0.9c0.4,0.1,0.9,0.2,1.4,0.3c0.5,0.1,1,0.1,1.5,0
			c0.5-0.1,0.9-0.3,1.3-0.6c0.4-0.3,0.7-0.8,0.8-1.4c0.3-1,0.1-1.8-0.4-2.4c-0.6-0.6-1.6-1.1-3-1.5l-3.3-0.9L452.3,143z
			 M454.6,134.4l3.2,0.9c1.2,0.3,2.1,0.3,2.8,0c0.7-0.3,1.2-0.8,1.4-1.5c0.2-0.8,0.1-1.6-0.4-2.1c-0.5-0.6-1.4-1-2.7-1.4l-2.9-0.8
			L454.6,134.4z"/>
		<path d="M509.6,153.4c-0.3-1.1-0.6-1.9-1.1-2.5c-0.5-0.6-1-1-1.6-1.4c-0.9-0.5-1.8-0.8-2.8-0.9c-0.9-0.1-1.8,0-2.7,0.3
			c-0.9,0.3-1.6,0.7-2.4,1.3c-0.7,0.6-1.3,1.4-1.8,2.2c-0.5,1-0.9,1.9-1,2.9c-0.2,1-0.1,1.9,0.1,2.8c0.2,0.9,0.6,1.7,1.2,2.4
			c0.6,0.7,1.3,1.4,2.2,1.9c0.7,0.4,1.5,0.6,2.4,0.6c0.9,0,1.8-0.2,2.8-0.6l1.6,3.3c-1.4,0.7-2.8,0.9-4.3,0.8
			c-1.4-0.1-2.8-0.6-4.1-1.3c-1.4-0.8-2.5-1.7-3.4-2.8c-0.9-1.1-1.5-2.3-1.9-3.5c-0.4-1.3-0.5-2.6-0.3-4c0.2-1.4,0.6-2.8,1.4-4.2
			c0.8-1.4,1.7-2.6,2.9-3.5c1.1-0.9,2.3-1.5,3.6-1.9c1.3-0.4,2.6-0.4,4-0.3c1.4,0.2,2.8,0.7,4.1,1.4c1.2,0.7,2.2,1.5,3,2.5
			c0.8,1,1.3,2.3,1.7,3.8L509.6,153.4z"/>
		<path d="M541.7,170.6l5.8,5.5c1,0.9,1.8,2,2.4,3.1c0.6,1.2,1,2.4,1.1,3.6c0.1,1.3,0,2.6-0.5,3.9c-0.5,1.3-1.3,2.6-2.4,3.9
			c-1.2,1.3-2.5,2.1-3.8,2.6c-1.4,0.5-2.7,0.7-4,0.6c-1.3-0.1-2.6-0.4-3.8-1c-1.2-0.6-2.3-1.3-3.2-2.1l-5.5-5.2L541.7,170.6z
			 M534.6,187.4c0.8,0.8,1.7,1.4,2.6,1.9c0.9,0.5,1.8,0.8,2.7,0.9c0.9,0.1,1.8,0,2.7-0.3c0.9-0.3,1.8-1,2.6-1.9
			c0.8-0.9,1.4-1.8,1.7-2.7c0.3-0.9,0.4-1.8,0.3-2.6c-0.1-0.9-0.4-1.7-0.9-2.5c-0.5-0.8-1.2-1.6-2-2.4l-2.4-2.3l-9.4,10L534.6,187.4
			z"/>
		<path d="M576.8,209.8l7.3,11.3l-2.7,1.8l-5.3-8.3l-4.2,2.7l5.1,7.8l-2.7,1.8l-5.1-7.8l-4.6,3l5.6,8.7l-2.7,1.8l-7.6-11.7
			L576.8,209.8z"/>
		<path d="M599.5,252.4l4.4,12.3l-3.1,1.1l-3.2-8.9l-5,1.8l3,8.4l-3.1,1.1l-3-8.4l-7.9,2.9l-1.2-3.4L599.5,252.4z"/>
		<path d="M594.8,318c-1.6-2.4-2.5-5.1-2.9-8.2c-0.2-1.6-0.1-3,0.3-4.4c0.4-1.4,1-2.6,1.8-3.6c0.8-1,1.9-1.9,3.1-2.6
			c1.2-0.7,2.6-1.1,4.2-1.2c1.6-0.2,3.1-0.1,4.5,0.3c1.4,0.4,2.6,1,3.6,1.9c1,0.8,1.9,1.9,2.5,3.1c0.6,1.3,1,2.7,1.2,4.2
			c0.2,1.5,0.1,3-0.1,4.4c-0.2,1.4-0.8,2.7-1.6,3.8l-3-2.4c0.6-0.7,1-1.5,1.2-2.5c0.2-1,0.3-2,0.2-3c-0.1-1-0.4-2-0.8-2.8
			c-0.5-0.8-1-1.5-1.8-2c-0.7-0.5-1.5-0.9-2.4-1.2c-0.9-0.2-1.9-0.3-2.9-0.2c-1.1,0.1-2.1,0.4-2.9,0.8c-0.9,0.4-1.6,1-2.2,1.7
			c-0.6,0.7-1.1,1.5-1.3,2.3c-0.3,0.9-0.4,1.9-0.3,2.9c0.1,0.9,0.3,1.8,0.5,2.6c0.3,0.8,0.6,1.5,1,2.1l4.8-0.5l-0.4-4.1l3.3-0.3
			l0.8,7.7L594.8,318z"/>
		<path d="M612.6,351.4l-0.5,3.6l-8-1.2l-1.4,9.4l8,1.2l-0.5,3.6l-20.1-3l0.5-3.6l8.8,1.3l1.4-9.4l-8.8-1.3l0.5-3.6L612.6,351.4z"/>
		<path d="M600.5,401.6l-1.3,3.4l-19-7.3l1.3-3.4L600.5,401.6z"/>
		<path d="M566.1,436.6c-0.7-0.4-1.3-1-1.8-1.6c-0.5-0.6-0.8-1.3-1-2c-0.2-0.7-0.2-1.5-0.1-2.3c0.1-0.8,0.5-1.7,1-2.5
			c0.9-1.4,1.9-2.3,3.1-2.7c1.2-0.5,2.5-0.4,4.1,0.2l-1.1,3.3c-0.6-0.3-1.2-0.3-1.8-0.2c-0.6,0.1-1,0.5-1.4,1
			c-0.6,0.9-0.6,1.7-0.2,2.3c0.4,0.7,1.1,1.4,2.1,2l11.5,7.3l-1.9,3L566.1,436.6z"/>
		<path d="M556.7,471.9l-2.6,2.5l-6-6.1l-0.1,0.1l0,12l-3.5,3.4l0.2-13.3l-14.9-0.7l3.6-3.6l13.3,1l0.1-0.1l-7-7.1l2.6-2.5
			L556.7,471.9z"/>
		<path d="M517.9,503.9l-3.1,1.9l-8.9-14.6l-7.4,4.5l-1.7-2.8l10.5-6.4L517.9,503.9z"/>
		<path d="M476.8,524.6l-5.3,1.6l-9.3-12l-1.1,15.2l-5.2,1.6l-5.9-19.4l3.3-1l4.9,16.1l0.1,0l1-17.9l2.4-0.7l10.8,14.3l0.1,0
			l-4.9-16.1l3.3-1L476.8,524.6z"/>
		<path d="M420.3,536.5l-4.8,0.1l-10.3-14.8l-0.1,0l0.4,15.1L402,537l-0.6-20.3l4.6-0.1l10.5,15.3l0.1,0l-0.4-15.6l3.6-0.1
			L420.3,536.5z"/>
		<path d="M369.9,523.7c-0.4,1.6-1,3-1.8,4.1c-0.8,1.2-1.8,2.1-2.9,2.8c-1.1,0.7-2.4,1.1-3.8,1.3c-1.4,0.2-2.8,0.1-4.4-0.3
			c-1.5-0.3-2.9-0.9-4.1-1.7s-2.1-1.7-2.8-2.9c-0.7-1.1-1.2-2.4-1.4-3.8c-0.2-1.4-0.1-2.9,0.2-4.5c0.4-1.5,1-2.9,1.8-4
			c0.8-1.1,1.8-2.1,3-2.7c1.1-0.7,2.4-1.1,3.8-1.3c1.4-0.2,2.9-0.1,4.4,0.2c1.5,0.4,2.9,0.9,4,1.7c1.2,0.8,2.1,1.8,2.8,2.9
			c0.7,1.1,1.2,2.4,1.4,3.8C370.3,520.7,370.2,522.2,369.9,523.7z M366.1,523.1c0.3-1.1,0.3-2.1,0.2-3c-0.1-1-0.4-1.9-0.8-2.6
			c-0.4-0.8-1-1.5-1.8-2c-0.7-0.6-1.6-1-2.6-1.2c-1-0.2-2-0.3-2.9-0.1c-0.9,0.2-1.8,0.5-2.5,1c-0.8,0.5-1.4,1.2-1.9,2
			c-0.5,0.8-0.9,1.8-1.2,2.8c-0.2,1-0.3,1.9-0.2,2.9c0.1,0.9,0.4,1.8,0.8,2.6c0.4,0.8,1,1.5,1.8,2s1.6,1,2.7,1.2
			c1,0.2,2,0.3,2.9,0.1c0.9-0.2,1.7-0.5,2.5-1c0.7-0.5,1.4-1.1,1.9-1.9C365.5,525,365.9,524.1,366.1,523.1z"/>
		<path d="M314.4,516.1l-6-3.2c-0.9-0.5-1.7-1-2.4-1.6c-0.7-0.6-1.3-1.2-1.7-2c-0.4-0.7-0.6-1.5-0.6-2.4c0-0.9,0.2-1.8,0.8-2.8
			c0.6-1.1,1.3-1.9,2-2.4c0.8-0.5,1.6-0.8,2.4-0.8s1.8,0.1,2.7,0.4c0.9,0.3,1.9,0.7,2.8,1.2l2.3,1.2l3.9-7.4l3.2,1.7L314.4,516.1z
			 M313.4,505.7c-0.5-0.2-0.9-0.5-1.4-0.7c-0.5-0.2-1-0.4-1.5-0.4c-0.5,0-1,0-1.4,0.2c-0.4,0.2-0.8,0.6-1.1,1.2
			c-0.3,0.6-0.4,1.1-0.3,1.5c0.1,0.5,0.2,0.9,0.5,1.2c0.3,0.4,0.6,0.7,1.1,1s0.9,0.5,1.3,0.8l2.3,1.2l2.7-5.1L313.4,505.7z"/>
		<path d="M270.8,460.5l8.8,7.9c1.2,1.1,2.1,2.2,2.8,3.5c0.7,1.3,1.1,2.6,1.2,3.9c0.1,1.3,0,2.7-0.5,4c-0.5,1.4-1.2,2.6-2.3,3.9
			c-1,1.1-2.1,1.9-3.4,2.5c-1.3,0.6-2.6,0.8-3.9,0.9c-1.3,0-2.6-0.2-3.9-0.7c-1.3-0.5-2.5-1.2-3.6-2.2c-1.1-1-1.9-2.1-2.6-3.3
			c-0.6-1.2-1-2.5-1.1-3.9c-0.1-1.3,0-2.6,0.4-4c0.4-1.3,1.1-2.5,2.1-3.6c0.7-0.8,1.4-1.4,2.2-1.8c0.7-0.4,1.5-0.7,2.2-0.9
			c0.7-0.2,1.4-0.3,2.1-0.2c0.7,0,1.3,0.1,1.8,0.2l0,0l-4.3-3.9L270.8,460.5z M268.2,481.7c0.7,0.7,1.5,1.1,2.4,1.4
			c0.9,0.3,1.7,0.4,2.6,0.3c0.9-0.1,1.7-0.3,2.6-0.7s1.6-1,2.3-1.7c0.7-0.8,1.2-1.6,1.5-2.5s0.5-1.8,0.5-2.7s-0.2-1.7-0.6-2.6
			c-0.4-0.8-0.9-1.6-1.7-2.2c-0.7-0.7-1.5-1.1-2.4-1.4c-0.9-0.3-1.8-0.4-2.6-0.3c-0.9,0.1-1.8,0.3-2.6,0.7c-0.9,0.4-1.6,1-2.3,1.8
			c-0.7,0.8-1.2,1.6-1.5,2.4c-0.3,0.9-0.5,1.7-0.4,2.6c0,0.9,0.2,1.7,0.6,2.6C266.9,480.3,267.5,481.1,268.2,481.7z"/>
		<path d="M235.7,449.7l-3.9-5.9c-0.5-0.8-1-1.6-1.3-2.5c-0.4-0.9-0.5-1.7-0.6-2.5c0-0.8,0.2-1.6,0.5-2.4c0.4-0.8,1.1-1.5,2-2.1
			c1.2-0.8,2.5-1.2,3.8-1c1.3,0.1,2.4,0.8,3.4,1.9l4.5-9.5l2.4,3.6l-4.5,8.7l1.5,2.2l7.2-4.8l2,3L235.7,449.7z M239.2,439.6
			c-0.3-0.4-0.6-0.8-0.9-1.2c-0.3-0.4-0.7-0.7-1.1-1c-0.4-0.3-0.8-0.4-1.3-0.4c-0.5,0-1,0.2-1.5,0.5c-0.5,0.3-0.8,0.7-1,1.1
			c-0.2,0.4-0.2,0.8-0.1,1.3c0.1,0.4,0.2,0.9,0.4,1.3c0.2,0.4,0.5,0.8,0.7,1.2l1.7,2.6l4.6-3.1L239.2,439.6z"/>
		<path d="M212.7,396.1c-0.4,0.6-0.6,1.2-0.6,1.9c0,0.7,0.1,1.4,0.3,2c0.1,0.4,0.3,0.8,0.6,1.1c0.2,0.3,0.5,0.6,0.8,0.8
			c0.3,0.2,0.7,0.4,1,0.4c0.4,0.1,0.8,0,1.2-0.1c0.6-0.2,1.1-0.6,1.2-1.2c0.2-0.6,0.3-1.2,0.3-2c0-0.8,0-1.6-0.1-2.4
			c-0.1-0.9,0-1.7,0.2-2.5c0.2-0.8,0.5-1.6,1-2.3c0.5-0.7,1.3-1.3,2.5-1.7c1-0.4,2-0.5,2.9-0.4c0.9,0.1,1.7,0.4,2.5,0.8
			c0.7,0.4,1.4,1,2,1.8c0.6,0.7,1,1.6,1.4,2.5c0.4,1.2,0.7,2.4,0.7,3.6c0,1.2-0.3,2.4-0.9,3.6l-3.4-1.6c0.5-0.6,0.8-1.4,0.9-2.2
			c0.1-0.8,0-1.6-0.3-2.3c-0.1-0.4-0.3-0.8-0.6-1.1c-0.3-0.4-0.5-0.7-0.9-0.9s-0.7-0.4-1.1-0.5c-0.4-0.1-0.8,0-1.3,0.1
			c-0.7,0.3-1.2,0.7-1.4,1.3c-0.2,0.6-0.3,1.3-0.3,2c0,0.8,0,1.6,0.1,2.5c0.1,0.9,0,1.7-0.1,2.5c-0.2,0.8-0.5,1.6-1,2.3
			c-0.5,0.7-1.3,1.3-2.4,1.7c-1,0.4-1.9,0.5-2.8,0.3c-0.9-0.1-1.7-0.4-2.4-0.9c-0.7-0.5-1.4-1.1-1.9-1.8c-0.5-0.8-1-1.6-1.3-2.4
			c-0.4-1-0.6-2-0.6-3.1c0-1.1,0.1-2.1,0.6-3.1L212.7,396.1z"/>
		<path d="M202.1,357.1l0.8,6.2l-3.2,0.4l-2.1-15.9l3.2-0.4l0.8,6.2l16.9-2.2l0.5,3.6L202.1,357.1z"/>
		<path d="M211.7,299.6c1.2,0.1,2.3,0.5,3.2,1c0.9,0.5,1.7,1.2,2.3,2c0.6,0.8,1,1.7,1.3,2.7c0.3,1,0.3,2.1,0.2,3.3
			c-0.1,1.2-0.4,2.2-0.9,3.2c-0.5,0.9-1.1,1.8-1.9,2.4c-0.8,0.7-1.7,1.1-2.7,1.4c-1,0.3-2.1,0.4-3.4,0.3l-12.8-1.3l0.4-3.6l12.7,1.3
			c0.5,0.1,1,0,1.6-0.1c0.6-0.1,1.1-0.3,1.6-0.6c0.5-0.3,0.9-0.7,1.3-1.3c0.4-0.5,0.6-1.3,0.7-2.1c0.1-0.9,0-1.6-0.2-2.2
			c-0.2-0.6-0.6-1.1-1-1.5c-0.4-0.4-0.9-0.7-1.4-0.9c-0.5-0.2-1-0.3-1.5-0.4l-12.7-1.3l0.4-3.6L211.7,299.6z"/>
		<path d="M206.2,266l1.4-3.9l16.3,0.1l-12.5-10.6l1.3-3.7l16.3,14.7l-1.1,2.9L206.2,266z"/>
		<path d="M226.8,219.9l2.3-3.2l14.2,5.3l0,0l-9.3-12.2l2-2.9l14.5,4.8l0,0l-9.7-11.7l2.1-3l13.2,16.5l-2,2.8l-15.3-5.1l0,0
			l9.9,12.8l-1.9,2.7L226.8,219.9z"/>
		<path d="M276.4,177.1L265,174l3.5-2.9l8.5,2.7l-1.2-8.8l3.4-2.8l1.1,11.7l12.5,3.5l-3.5,2.9l-9.6-3.2l1.4,10l-3.4,2.8L276.4,177.1
			z"/>
		<path d="M317.4,152.3l-12-7.1l4.1-2l8,5.1l1-9.5l3.9-1.9l-1.8,13.8l3.8,7.8l-3.2,1.6L317.4,152.3z"/>
		<path d="M355.9,143.4l7.6-15.8l-10.4,2.3l-0.7-3.2l14.8-3.3l0.7,3.2l-7.7,15.8L371,140l0.7,3.2l-15.1,3.4L355.9,143.4z"/>
	</g>
	<g>
		<circle class="st0" cx="405.3" cy="328.4" r="134.7"/>
		<path d="M269.4,342.4L269.4,342.4c0.9,0.5,1.5,1,1.9,1.8c0.4,0.7,0.7,1.5,0.8,2.4c0.1,0.6,0.1,1.2,0,1.9c-0.1,0.6-0.3,1.2-0.6,1.7
			c-0.3,0.5-0.7,0.9-1.1,1.3c-0.5,0.3-1.1,0.6-1.7,0.6c-0.7,0.1-1.4,0-1.9-0.2c-0.6-0.2-1-0.5-1.4-0.9c-0.4-0.4-0.8-0.9-1-1.4
			c-0.3-0.6-0.5-1.2-0.7-1.8c-0.2-0.6-0.3-1.3-0.4-1.9c-0.1-0.6-0.2-1.2-0.3-1.8l-0.1-0.9l-0.4,0c-0.9,0.1-1.5,0.5-1.8,1.1
			c-0.4,0.6-0.5,1.4-0.4,2.3c0.1,0.7,0.3,1.4,0.6,2c0.3,0.6,0.7,1.1,1.2,1.5l-1.6,2c-0.9-0.7-1.5-1.5-2-2.5c-0.5-1-0.8-2-0.9-3.1
			c-0.1-1-0.1-1.8,0-2.5c0.1-0.7,0.3-1.3,0.6-1.8c0.3-0.5,0.6-0.9,1.1-1.2c0.4-0.3,0.8-0.5,1.3-0.7c0.4-0.2,0.9-0.3,1.3-0.3
			c0.4-0.1,0.8-0.1,1.1-0.2l7.9-1l0.4,3.1L269.4,342.4z M265.2,343.2l0.1,0.7c0.1,0.5,0.1,1,0.3,1.6c0.1,0.6,0.3,1.1,0.5,1.6
			c0.2,0.5,0.5,0.9,0.8,1.2c0.3,0.3,0.7,0.5,1.2,0.4c0.3,0,0.6-0.1,0.8-0.3c0.2-0.2,0.4-0.4,0.5-0.6c0.1-0.2,0.2-0.5,0.2-0.8
			c0-0.3,0-0.6,0-0.9c-0.1-1.2-0.5-2-1.2-2.5c-0.6-0.5-1.4-0.7-2.4-0.6L265.2,343.2z"/>
		<path d="M249.3,315.2l0.4-3.4l9.6,1.2l0-0.1c-0.2-0.2-0.4-0.4-0.6-0.7c-0.2-0.3-0.4-0.6-0.5-1.1c-0.2-0.4-0.3-0.9-0.3-1.4
			c-0.1-0.5-0.1-1.1,0-1.7c0.1-1,0.4-1.8,0.9-2.6c0.5-0.8,1.1-1.4,1.8-1.9c0.7-0.5,1.5-0.8,2.5-1.1c0.9-0.2,1.9-0.2,2.9-0.1
			c1,0.1,1.9,0.4,2.8,0.8c0.8,0.4,1.5,1,2.1,1.6c0.6,0.7,1,1.4,1.2,2.3c0.3,0.9,0.3,1.8,0.2,2.9c-0.1,1-0.4,1.8-0.9,2.6
			c-0.5,0.8-1.2,1.4-2.1,1.8l0,0.1l2,0.3l-0.4,3.2L249.3,315.2z M265.4,305.8c-0.5-0.1-1.1,0-1.6,0.1c-0.5,0.1-1,0.3-1.4,0.6
			c-0.4,0.3-0.8,0.7-1.1,1.1c-0.3,0.5-0.5,1-0.6,1.6c-0.1,0.6,0,1.2,0.1,1.7c0.2,0.5,0.4,1,0.7,1.4c0.3,0.4,0.7,0.7,1.2,1
			c0.5,0.2,1,0.4,1.5,0.5c0.5,0.1,1.1,0,1.6-0.1c0.5-0.1,1-0.3,1.4-0.6c0.4-0.3,0.8-0.7,1.1-1.1c0.3-0.5,0.5-1,0.6-1.6
			c0.1-0.6,0-1.2-0.1-1.7c-0.2-0.5-0.4-1-0.7-1.4c-0.3-0.4-0.7-0.7-1.2-1C266.5,306,266,305.8,265.4,305.8z"/>
		<path d="M272.8,271c-0.5,0.2-1,0.5-1.4,0.8c-0.4,0.3-0.7,0.7-0.8,1.1c-0.2,0.6-0.3,1.2-0.3,1.7c0,0.5,0.2,1.1,0.4,1.5
			c0.2,0.5,0.5,0.9,0.9,1.2c0.4,0.4,0.8,0.6,1.3,0.8c0.5,0.2,1,0.3,1.5,0.3c0.5,0,1-0.1,1.5-0.3c0.5-0.2,0.9-0.5,1.3-0.8
			c0.4-0.4,0.7-0.9,0.9-1.4c0.2-0.5,0.3-1,0.2-1.5c0-0.5-0.2-1-0.5-1.4l3.1-1.2c0.2,0.4,0.3,0.9,0.4,1.4c0.1,0.5,0.1,1,0.1,1.5
			c0,0.5-0.1,0.9-0.2,1.3c-0.1,0.4-0.2,0.8-0.3,1c-0.4,1-0.9,1.8-1.6,2.5c-0.7,0.7-1.4,1.3-2.2,1.7c-0.8,0.4-1.7,0.6-2.7,0.6
			c-1,0-2-0.1-3-0.6c-1-0.4-1.9-1-2.5-1.6c-0.7-0.7-1.2-1.5-1.5-2.3c-0.3-0.9-0.5-1.8-0.5-2.8c0-1,0.2-1.9,0.6-2.9
			c0.3-0.8,0.8-1.6,1.4-2.3c0.6-0.7,1.4-1.2,2.3-1.6L272.8,271z"/>
		<path d="M296.7,245.2L296.7,245.2c0.4,0.9,0.5,1.8,0.3,2.7c-0.2,0.9-0.6,1.8-1.1,2.5c-0.6,0.9-1.3,1.5-2.1,2
			c-0.8,0.5-1.6,0.7-2.5,0.8c-0.9,0.1-1.8,0-2.6-0.3c-0.9-0.3-1.7-0.7-2.6-1.3c-0.8-0.6-1.5-1.3-2-2.1c-0.5-0.8-0.9-1.6-1.1-2.4
			c-0.2-0.9-0.2-1.7,0-2.6c0.2-0.9,0.6-1.7,1.1-2.5c0.4-0.5,0.8-1,1.2-1.3c0.4-0.3,0.8-0.6,1.2-0.8c0.4-0.2,0.8-0.3,1.1-0.4
			c0.4-0.1,0.7-0.1,1-0.1l0.1-0.1l-7.8-5.7l2-2.8l17.6,12.7l-1.9,2.6L296.7,245.2z M288,249c0.4,0.3,0.9,0.5,1.4,0.7
			c0.5,0.1,1,0.2,1.5,0.1c0.5-0.1,1-0.2,1.5-0.5c0.5-0.3,0.9-0.7,1.3-1.2c0.4-0.5,0.6-1,0.7-1.6c0.1-0.5,0.1-1.1,0-1.6
			c-0.1-0.5-0.3-1-0.6-1.4c-0.3-0.4-0.7-0.8-1.1-1.1c-0.4-0.3-0.9-0.5-1.4-0.7c-0.5-0.1-1-0.2-1.5-0.1c-0.5,0.1-1,0.2-1.5,0.5
			c-0.5,0.3-0.9,0.7-1.3,1.2c-0.4,0.5-0.6,1-0.7,1.6c-0.1,0.5-0.1,1.1,0,1.6c0.1,0.5,0.3,1,0.6,1.4C287.2,248.3,287.6,248.7,288,249
			z"/>
		<path d="M313.5,222.2c0.7,0.7,1.6,1.1,2.5,1.1s1.7-0.3,2.5-0.9c0.7-0.5,1.1-1.1,1.3-1.8c0.2-0.6,0.3-1.3,0.3-2l3.1-0.1
			c0,1.3-0.2,2.4-0.7,3.4c-0.5,1-1.2,1.8-2,2.5c-0.8,0.7-1.7,1.1-2.6,1.5c-0.9,0.3-1.9,0.4-2.8,0.4c-0.9-0.1-1.8-0.3-2.7-0.8
			c-0.9-0.4-1.6-1.1-2.3-1.9c-0.7-0.8-1.2-1.7-1.4-2.7c-0.3-0.9-0.3-1.9-0.2-2.8c0.1-0.9,0.4-1.8,0.9-2.6c0.5-0.8,1.1-1.6,1.9-2.3
			c0.7-0.6,1.5-1,2.3-1.3c0.8-0.2,1.7-0.3,2.5-0.2c0.8,0.1,1.7,0.5,2.5,1c0.8,0.5,1.6,1.2,2.4,2.2l0.6,0.7L313.5,222.2z
			 M317.3,215.7c-0.7-0.8-1.4-1.2-2.3-1.2c-0.8-0.1-1.7,0.3-2.5,0.9c-0.8,0.7-1.2,1.4-1.3,2.2c-0.1,0.8,0.1,1.7,0.7,2.5L317.3,215.7
			z"/>
		<path d="M339.2,198.7l-2.5,1.3l-1.3-2.6l2.5-1.3l-0.9-1.7c-0.4-0.9-0.7-1.7-1-2.4c-0.2-0.8-0.3-1.5-0.2-2.1
			c0.1-0.7,0.4-1.3,0.8-1.8c0.5-0.6,1.2-1.1,2.1-1.6c0.7-0.3,1.4-0.6,2-0.8l1.1,2.7c-0.2,0.1-0.5,0.1-0.7,0.2
			c-0.2,0.1-0.4,0.2-0.7,0.3c-0.4,0.2-0.7,0.4-0.9,0.7c-0.2,0.3-0.3,0.5-0.3,0.9c0,0.3,0,0.6,0.1,0.9s0.2,0.7,0.4,1l1.1,2.2l2.9-1.4
			l1.3,2.6l-2.9,1.4l4.8,9.7l-3.1,1.5L339.2,198.7z"/>
		<path d="M379.2,182.1l2.8,12.2c0.3,1.2,0.4,2.3,0.3,3.4c-0.1,1-0.4,2-0.8,2.8c-0.5,0.8-1.1,1.5-2,2.1s-2,1-3.3,1.3
			c-1.2,0.3-2.5,0.4-3.7,0.3c-1.2-0.1-2.4-0.4-3.5-1l1.4-3.2c0.8,0.5,1.6,0.8,2.4,1c0.8,0.2,1.7,0.1,2.6-0.1c0.8-0.2,1.5-0.4,2-0.8
			c0.5-0.3,0.9-0.8,1.1-1.2c0.2-0.5,0.4-1,0.4-1.6c0-0.6-0.1-1.2-0.2-1.9l-0.2-1l-0.1,0c-0.3,0.8-0.9,1.4-1.6,1.9
			c-0.7,0.5-1.5,0.9-2.4,1c-1,0.2-2,0.3-2.9,0.1c-0.9-0.2-1.7-0.5-2.4-1s-1.3-1.1-1.9-1.9c-0.5-0.8-0.9-1.6-1.1-2.6
			c-0.2-1-0.3-1.9-0.2-2.9c0.1-0.9,0.4-1.8,0.8-2.5c0.4-0.8,1-1.4,1.7-2c0.7-0.5,1.6-0.9,2.7-1.2c1-0.2,1.9-0.2,2.8,0
			c0.9,0.2,1.7,0.6,2.4,1.3l0.1,0l-0.5-2L379.2,182.1z M372.7,186.4c-0.6,0.1-1.1,0.4-1.6,0.7c-0.4,0.3-0.8,0.7-1.1,1.1
			c-0.3,0.4-0.4,0.9-0.5,1.4c-0.1,0.5-0.1,1.1,0.1,1.7c0.1,0.5,0.3,1,0.6,1.4c0.3,0.4,0.7,0.8,1.1,1c0.4,0.3,0.9,0.5,1.4,0.6
			c0.5,0.1,1.1,0.1,1.6,0c0.6-0.1,1.1-0.4,1.6-0.7c0.4-0.3,0.8-0.7,1.1-1.1c0.3-0.4,0.4-0.9,0.5-1.4c0.1-0.5,0.1-1.1-0.1-1.6
			c-0.3-1.2-0.8-2-1.7-2.6C375,186.3,373.9,186.1,372.7,186.4z"/>
		<path d="M407.3,181.9L407.3,181.9c0.3-0.6,0.8-1.1,1.5-1.5c0.7-0.4,1.6-0.7,2.6-0.6c0.9,0,1.7,0.2,2.3,0.5
			c0.6,0.3,1.1,0.7,1.5,1.3c0.4,0.5,0.7,1.1,0.8,1.7c0.2,0.7,0.2,1.3,0.2,2l-0.3,8.7l-3.4-0.1l0.2-7c0-0.4,0-0.8,0-1.3
			c0-0.5-0.1-0.9-0.3-1.3c-0.1-0.4-0.4-0.8-0.7-1.1c-0.3-0.3-0.8-0.4-1.4-0.5c-0.6,0-1.1,0.1-1.5,0.2c-0.4,0.2-0.7,0.4-1,0.7
			c-0.3,0.3-0.5,0.7-0.6,1.1c-0.1,0.4-0.2,0.9-0.2,1.3l-0.2,7.5l-3.4-0.1l0.7-21.7l3.4,0.1L407.3,181.9z"/>
		<path d="M440.8,184.2l3.3,0.9l-3.5,13.3l-3.3-0.9L440.8,184.2z M441.5,179.6c0.1-0.5,0.5-1,1-1.2c0.5-0.3,1.1-0.4,1.7-0.2
			s1.1,0.5,1.4,1c0.3,0.5,0.4,1,0.3,1.6c-0.1,0.6-0.5,1-1,1.3c-0.5,0.3-1.1,0.3-1.7,0.2c-0.6-0.2-1.1-0.5-1.4-1
			C441.4,180.7,441.3,180.1,441.5,179.6z"/>
		<path d="M470.1,194.8l-6.2,13.2c-0.4,0.8-0.8,1.5-1.2,2.1c-0.4,0.6-0.9,1.1-1.4,1.5c-0.5,0.4-1.1,0.5-1.8,0.5
			c-0.7,0-1.5-0.2-2.3-0.6c-0.3-0.1-0.6-0.3-0.8-0.5c-0.3-0.2-0.5-0.4-0.7-0.6l1.5-2.6c0.2,0.1,0.3,0.2,0.5,0.3
			c0.1,0.1,0.3,0.2,0.5,0.3c0.4,0.2,0.7,0.2,1,0.2c0.3-0.1,0.5-0.2,0.8-0.4c0.2-0.2,0.4-0.5,0.6-0.8c0.2-0.3,0.3-0.6,0.5-0.9
			l6.2-13.2L470.1,194.8z M468.5,188.9c0.2-0.5,0.6-0.9,1.2-1c0.5-0.2,1.1-0.2,1.7,0.1s1,0.7,1.2,1.2c0.2,0.5,0.2,1.1,0,1.6
			c-0.3,0.5-0.7,0.9-1.2,1.1c-0.6,0.2-1.1,0.1-1.7-0.1c-0.6-0.3-1-0.7-1.2-1.2C468.3,190,468.3,189.4,468.5,188.9z"/>
		<path d="M496.1,201l2.7,2.1l-8.3,10.8l7.7-1.3l3.5,2.7l-8.5,1.4l0.4,9.8l-3.6-2.8l-0.1-8.9l0,0l-4.3,5.6l-2.7-2.1L496.1,201z"/>
		<path d="M523.8,226.4l2.2,2.6l-16.6,14l-2.2-2.6L523.8,226.4z"/>
		<path d="M534.3,254.2l1.4,2.9l-1.9,0.9l0,0.1c0.7,0,1.5,0.2,2.2,0.6c0.8,0.4,1.4,1.1,1.9,2.1c0.9,1.9,0.8,3.6-0.4,5
			c1,0.1,1.9,0.3,2.6,0.8s1.3,1.2,1.7,2.1c0.4,0.8,0.6,1.6,0.6,2.3c0,0.7-0.2,1.3-0.5,1.9c-0.3,0.6-0.8,1.1-1.3,1.6
			c-0.6,0.5-1.2,0.9-2,1.2l-7.4,3.6l-1.5-3.1l7-3.4c0.4-0.2,0.7-0.4,1-0.6c0.3-0.2,0.6-0.5,0.8-0.8c0.2-0.3,0.3-0.6,0.3-1
			c0-0.4-0.1-0.8-0.3-1.2c-0.2-0.5-0.5-0.8-0.9-1.1c-0.3-0.2-0.7-0.4-1.1-0.5c-0.4-0.1-0.8-0.1-1.3,0c-0.4,0.1-0.8,0.2-1.2,0.4
			l-6.7,3.2l-1.5-3.1l7.4-3.6c0.8-0.4,1.3-0.8,1.6-1.4c0.3-0.5,0.3-1.2-0.1-2c-0.2-0.5-0.5-0.9-0.9-1.2c-0.3-0.3-0.7-0.5-1.1-0.5
			c-0.4-0.1-0.8-0.1-1.2,0c-0.4,0.1-0.9,0.2-1.3,0.4l-6.8,3.3l-1.5-3.1L534.3,254.2z"/>
		<path d="M550.6,297.4l0.5,3.2L549,301l0,0.1c0.7,0.2,1.4,0.6,2,1.2c0.6,0.6,1,1.4,1.2,2.6c0.2,0.9,0.1,1.7-0.1,2.4
			c-0.2,0.7-0.5,1.3-0.9,1.7c-0.4,0.5-0.9,0.9-1.6,1.1c-0.6,0.3-1.3,0.5-2,0.6l-8.6,1.4l-0.6-3.4l6.9-1.2c0.4-0.1,0.8-0.2,1.2-0.3
			c0.5-0.1,0.9-0.3,1.3-0.5c0.4-0.2,0.7-0.5,0.9-0.9c0.2-0.4,0.3-0.9,0.2-1.5c-0.1-0.6-0.3-1-0.5-1.4c-0.3-0.4-0.6-0.6-0.9-0.8
			c-0.4-0.2-0.8-0.3-1.2-0.4c-0.4,0-0.9,0-1.3,0.1l-7.4,1.3l-0.6-3.4L550.6,297.4z"/>
		<path d="M547,333.4c1.1,0.1,2.1,0.4,2.9,0.8c0.9,0.5,1.6,1.1,2.1,1.8c0.6,0.7,1,1.6,1.2,2.5c0.3,0.9,0.4,1.9,0.3,3
			c-0.1,1-0.3,2-0.8,2.9c-0.4,0.9-1,1.6-1.7,2.2c-0.7,0.6-1.5,1.1-2.4,1.4c-0.9,0.3-1.9,0.4-3,0.3c-1.1-0.1-2.1-0.4-2.9-0.8
			c-0.9-0.5-1.6-1.1-2.1-1.8c-0.6-0.7-1-1.6-1.3-2.5c-0.3-0.9-0.4-1.9-0.3-3c0.1-1,0.3-2,0.8-2.9c0.4-0.9,1-1.6,1.7-2.2
			c0.7-0.6,1.5-1.1,2.4-1.4C544.9,333.4,545.9,333.3,547,333.4z M546.7,336.8c-0.5,0-1.1,0-1.6,0.1c-0.5,0.1-1,0.4-1.4,0.7
			c-0.4,0.3-0.8,0.7-1,1.2c-0.3,0.5-0.4,1-0.5,1.7c-0.1,0.6,0,1.2,0.2,1.7c0.2,0.5,0.5,1,0.8,1.4c0.3,0.4,0.8,0.7,1.2,0.9
			c0.5,0.2,1,0.4,1.5,0.4c0.5,0,1.1,0,1.6-0.1c0.5-0.1,1-0.4,1.4-0.7c0.4-0.3,0.8-0.7,1-1.2c0.3-0.5,0.4-1,0.5-1.7
			c0.1-0.6,0-1.2-0.2-1.7c-0.2-0.5-0.5-1-0.8-1.4c-0.4-0.4-0.8-0.7-1.2-0.9C547.7,337,547.2,336.8,546.7,336.8z"/>
		<path d="M547.2,372.5l-1.1,3.1l-1.9-0.7l0,0.1c0.6,0.8,1,1.6,1,2.5c0.1,0.9-0.1,1.8-0.4,2.8c-0.4,1-0.9,1.8-1.5,2.5
			c-0.6,0.7-1.4,1.2-2.2,1.5c-0.8,0.3-1.7,0.5-2.6,0.5c-0.9,0-1.9-0.2-2.8-0.5s-1.8-0.8-2.5-1.4c-0.7-0.6-1.3-1.3-1.7-2.1
			c-0.4-0.8-0.7-1.6-0.7-2.5c-0.1-0.9,0.1-1.8,0.4-2.7c0.2-0.6,0.5-1.1,0.8-1.5c0.3-0.4,0.6-0.8,0.9-1.1c0.3-0.3,0.7-0.5,1-0.7
			s0.6-0.3,0.9-0.4l0-0.1l-7.8-2.8l1.2-3.2L547.2,372.5z M536.9,380.9c0.5,0.2,1,0.3,1.5,0.3c0.5,0,1-0.1,1.5-0.3
			c0.5-0.2,0.9-0.5,1.3-0.9s0.7-0.9,0.9-1.5s0.3-1.2,0.3-1.7c0-0.5-0.2-1.1-0.4-1.5c-0.2-0.5-0.6-0.9-1-1.2
			c-0.4-0.3-0.9-0.6-1.4-0.8c-0.5-0.2-1-0.3-1.5-0.3c-0.5,0-1,0.1-1.5,0.3c-0.5,0.2-0.9,0.5-1.3,0.9c-0.4,0.4-0.7,0.9-0.9,1.5
			c-0.2,0.6-0.3,1.2-0.3,1.7c0,0.5,0.2,1,0.4,1.5c0.2,0.5,0.6,0.9,1,1.2C535.9,380.4,536.4,380.7,536.9,380.9z"/>
		<path d="M506.1,407.8l2-2.8l6.8,4.8l0-0.1c-0.1-0.3-0.2-0.6-0.2-0.9c0-0.4,0-0.8,0-1.2c0-0.4,0.2-0.9,0.3-1.4
			c0.2-0.5,0.5-1,0.8-1.5c0.6-0.8,1.2-1.4,2-1.9c0.8-0.5,1.6-0.7,2.5-0.8c0.9-0.1,1.8,0,2.7,0.2c0.9,0.2,1.8,0.6,2.6,1.2
			c0.8,0.6,1.5,1.3,2.1,2c0.5,0.8,0.9,1.6,1.1,2.4c0.2,0.9,0.2,1.7,0,2.6c-0.2,0.9-0.6,1.8-1.2,2.7c-0.6,0.8-1.2,1.4-2,1.9
			c-0.8,0.5-1.7,0.7-2.7,0.6l0,0l1.7,1.2l-1.9,2.7L506.1,407.8z M523.7,406.2c-0.4-0.3-0.9-0.5-1.4-0.7c-0.5-0.1-1-0.2-1.5-0.1
			c-0.5,0.1-1,0.2-1.5,0.5c-0.5,0.3-0.9,0.7-1.3,1.2c-0.4,0.5-0.6,1-0.7,1.6c-0.1,0.5-0.1,1.1,0,1.6c0.1,0.5,0.3,1,0.6,1.4
			c0.3,0.4,0.7,0.8,1.1,1.1c0.4,0.3,0.9,0.5,1.4,0.7c0.5,0.1,1,0.2,1.5,0.1c0.5-0.1,1-0.2,1.5-0.5c0.5-0.3,0.9-0.7,1.3-1.2
			c0.4-0.5,0.6-1,0.7-1.6c0.1-0.5,0.1-1.1,0-1.6c-0.1-0.5-0.3-1-0.6-1.4C524.5,406.9,524.1,406.5,523.7,406.2z"/>
		<path d="M506,437.6l-2.6,2.3l-1.4-1.6l0,0c0.2,0.9,0.2,1.7,0,2.5c-0.2,0.8-0.7,1.5-1.4,2.1c-0.2,0.1-0.3,0.3-0.5,0.4
			c-0.2,0.1-0.4,0.2-0.6,0.3l-2.2-2.5c0.3-0.1,0.5-0.3,0.8-0.4c0.2-0.1,0.5-0.3,0.7-0.5c0.6-0.5,1-1.1,1.2-1.6
			c0.2-0.5,0.2-1,0.2-1.5c-0.1-0.5-0.2-0.9-0.4-1.2c-0.2-0.3-0.3-0.6-0.5-0.7l-4.9-5.5l2.6-2.3L506,437.6z"/>
		<path d="M472.2,456.7c1,0.5,2.1,0.5,3-0.1c0.4-0.2,0.7-0.5,1-0.9s0.3-0.8,0-1.3c-0.2-0.4-0.5-0.6-0.9-0.5c-0.4,0-0.9,0.1-1.4,0.2
			c-0.6,0.1-1.1,0.3-1.8,0.5c-0.6,0.2-1.3,0.3-1.9,0.3c-0.6,0-1.2-0.1-1.8-0.4s-1.1-0.8-1.5-1.6c-0.4-0.7-0.6-1.4-0.5-2.1
			c0-0.7,0.2-1.3,0.6-1.9c0.3-0.6,0.8-1.1,1.3-1.6c0.5-0.5,1.1-0.9,1.8-1.2c0.9-0.5,1.9-0.9,2.8-1c0.9-0.2,1.9-0.1,2.9,0.3l-1,3
			c-0.6-0.2-1.2-0.4-1.8-0.4c-0.6,0-1.2,0.1-1.9,0.5c-0.2,0.1-0.4,0.3-0.6,0.4c-0.2,0.2-0.4,0.4-0.5,0.6c-0.1,0.2-0.2,0.5-0.2,0.7
			c0,0.2,0,0.5,0.1,0.7c0.2,0.4,0.6,0.6,1,0.7c0.4,0,0.9,0,1.5-0.2c0.6-0.1,1.1-0.3,1.8-0.5c0.6-0.2,1.2-0.3,1.9-0.3
			c0.6,0,1.2,0.1,1.8,0.4c0.6,0.3,1,0.8,1.5,1.5c0.4,0.7,0.5,1.3,0.5,2c0,0.6-0.1,1.3-0.4,1.8c-0.3,0.6-0.7,1.1-1.2,1.6
			c-0.5,0.5-1.1,0.9-1.7,1.2c-0.8,0.4-1.7,0.7-2.6,0.9c-0.9,0.2-1.8,0-2.7-0.4L472.2,456.7z"/>
		<path d="M450.8,466.8l0.8,2.8l-2.7,0.8l1.1,3.8l-3.3,1l-1.1-3.8l-3.6,1l-0.8-2.8l3.6-1l-1.7-5.8c-0.2-0.7-0.5-1.1-0.8-1.5
			c-0.4-0.3-0.9-0.4-1.6-0.2c-0.3,0.1-0.6,0.2-0.9,0.4c-0.3,0.2-0.6,0.3-0.7,0.6l-0.8-2.8c0.3-0.3,0.7-0.5,1.2-0.7
			c0.5-0.2,0.9-0.4,1.3-0.5c0.9-0.3,1.6-0.4,2.2-0.3c0.6,0,1.1,0.2,1.6,0.5c0.4,0.3,0.8,0.7,1.1,1.3c0.3,0.6,0.5,1.2,0.8,2l1.7,6.1
			L450.8,466.8z"/>
		<path d="M405.6,463.3l3.3-0.2l0.1,2.2l0.1,0c0.3-0.7,0.8-1.3,1.4-1.9s1.5-0.8,2.7-0.9c0.9,0,1.7,0.1,2.4,0.3
			c0.7,0.3,1.2,0.6,1.6,1.1c0.4,0.5,0.7,1,0.9,1.7c0.2,0.6,0.3,1.3,0.4,2l0.4,8.7l-3.4,0.2l-0.4-7c0-0.4-0.1-0.8-0.1-1.3
			c-0.1-0.5-0.2-0.9-0.4-1.3c-0.2-0.4-0.4-0.7-0.8-1c-0.3-0.3-0.8-0.4-1.4-0.3c-0.6,0-1.1,0.1-1.4,0.4c-0.4,0.2-0.7,0.5-0.9,0.8
			c-0.2,0.3-0.4,0.7-0.5,1.1c-0.1,0.4-0.1,0.9-0.1,1.3l0.4,7.5l-3.4,0.2L405.6,463.3z"/>
		<path d="M383.5,475.5l-3.7-0.7l-1.7-10.2l-0.1,0l-5.5,8.7l-3.5-0.7l8-12.4l3.6,0.7L383.5,475.5z"/>
		<path d="M348.8,466.2l-3.3-1.7l1.7-9.9l-0.1,0l-6.8,7.4l-3.3-1.7l1.7-9.9l-0.1,0l-6.9,7.3l-3.1-1.6l10.4-10.2l3,1.5l-1.3,9.9
			l0.1,0l6.8-7.1l3.2,1.6L348.8,466.2z"/>
		<path d="M311.5,435.2l-0.7,7.9l-3.1-2.8l0.7-4.9l-5,1.1l-2.9-2.6l7.8-1.6l0.9-9.2l3.1,2.8l-0.7,6.1l6-1.2l3,2.7L311.5,435.2z"/>
		<path d="M286.2,417.4l-2.1-3.1l5.8-8.5l0,0l-9.8,2.5l-2-3l17.5-3.9c0.7-0.2,1.3-0.2,1.9-0.3c0.6,0,1.1,0,1.6,0.2
			c0.5,0.1,1,0.4,1.4,0.8c0.4,0.4,0.9,0.9,1.3,1.5c0.5,0.7,0.9,1.5,1.2,2.4l-2.8,1.4c-0.1-0.3-0.2-0.6-0.3-0.8
			c-0.1-0.3-0.3-0.6-0.4-0.8c-0.2-0.3-0.5-0.6-0.7-0.8c-0.2-0.2-0.5-0.3-0.7-0.4c-0.2-0.1-0.5-0.1-0.8-0.1c-0.3,0-0.6,0.1-1,0.2
			l-1.7,0.4L286.2,417.4z"/>
		<path d="M278.1,382.1l-9.9-4.2l-0.1,0l2.4,6.6l-2.6,1l-3.9-10.5l2.9-1.1l10,4.3l-2.7-7.3l2.6-1l4.1,11.1L278.1,382.1z"/>
	</g>
	<circle class="st1" cx="405.3" cy="328.4" r="170.5"/>
	<circle class="st1" cx="405.3" cy="328.4" r="236.5"/>
	<circle class="st2" cx="405.3" cy="328.4" r="9.5"/>
</g>
<g id="Layer_7">
	<g>
		<rect y="0" class="st0" width="792" height="90.4"/>
		<path class="st3" d="M119.2,40.5c-0.4-0.5-0.9-0.8-1.5-1.1c-0.7-0.2-1.3-0.3-1.8-0.3c-0.3,0-0.7,0-1,0.1c-0.4,0.1-0.7,0.2-1,0.4
			c-0.3,0.2-0.6,0.4-0.8,0.7c-0.2,0.3-0.3,0.6-0.3,1c0,0.6,0.2,1.1,0.7,1.5c0.5,0.3,1.1,0.6,1.8,0.9s1.5,0.5,2.4,0.7
			c0.8,0.2,1.6,0.6,2.4,1c0.7,0.4,1.3,1,1.8,1.8c0.5,0.7,0.7,1.7,0.7,3c0,1.2-0.2,2.2-0.7,3.1c-0.4,0.9-1,1.6-1.8,2.2
			c-0.8,0.6-1.6,1-2.6,1.3c-1,0.3-2,0.4-3.1,0.4c-1.4,0-2.7-0.2-3.8-0.6c-1.2-0.4-2.3-1.1-3.3-2l3.3-3.7c0.5,0.6,1.1,1.1,1.8,1.5
			c0.7,0.4,1.5,0.5,2.3,0.5c0.4,0,0.8,0,1.2-0.1c0.4-0.1,0.7-0.2,1.1-0.4c0.3-0.2,0.6-0.4,0.8-0.7c0.2-0.3,0.3-0.6,0.3-1
			c0-0.6-0.2-1.1-0.7-1.5c-0.5-0.4-1.1-0.7-1.8-0.9c-0.7-0.3-1.5-0.5-2.4-0.8c-0.9-0.3-1.7-0.6-2.4-1c-0.7-0.4-1.4-1-1.8-1.7
			c-0.5-0.7-0.7-1.7-0.7-2.8c0-1.1,0.2-2.1,0.7-3c0.4-0.9,1-1.6,1.8-2.2c0.8-0.6,1.6-1,2.6-1.3c1-0.3,2-0.4,3-0.4
			c1.2,0,2.4,0.2,3.5,0.5c1.1,0.3,2.1,0.9,3,1.7L119.2,40.5z"/>
		<path class="st3" d="M133.7,58.9c-0.3,0.8-0.6,1.5-0.9,2.1c-0.3,0.6-0.6,1.1-1.1,1.5c-0.4,0.4-1,0.7-1.6,0.9s-1.5,0.3-2.6,0.3
			c-1.2,0-2.3-0.2-3.4-0.5l0.6-3.7c0.7,0.3,1.4,0.5,2.1,0.5c0.5,0,0.9-0.1,1.2-0.2c0.3-0.1,0.6-0.3,0.8-0.5s0.4-0.5,0.5-0.8
			c0.1-0.3,0.3-0.7,0.4-1l0.3-0.8L123.8,42h4.9l3.8,9.6h0.1l3.2-9.6h4.6L133.7,58.9z"/>
		<path class="st3" d="M142,42h4.3v2h0.1c0.1-0.3,0.3-0.6,0.6-0.8c0.3-0.3,0.6-0.5,0.9-0.8c0.4-0.2,0.8-0.4,1.2-0.5
			c0.5-0.1,1-0.2,1.5-0.2c1,0,1.9,0.2,2.7,0.6c0.8,0.4,1.4,1.1,1.8,2c0.5-0.9,1.1-1.6,1.9-2c0.7-0.4,1.6-0.6,2.7-0.6
			c1,0,1.8,0.2,2.5,0.5c0.7,0.3,1.2,0.8,1.6,1.3s0.7,1.2,0.8,2c0.2,0.8,0.3,1.6,0.3,2.5v8.6h-4.5v-8.5c0-0.7-0.1-1.3-0.4-1.8
			c-0.3-0.5-0.8-0.7-1.5-0.7c-0.5,0-1,0.1-1.3,0.3c-0.4,0.2-0.6,0.4-0.8,0.7c-0.2,0.3-0.4,0.7-0.4,1.1c-0.1,0.4-0.1,0.8-0.1,1.3v7.7
			h-4.5v-7.7c0-0.3,0-0.6,0-1c0-0.4-0.1-0.7-0.2-1.1c-0.1-0.3-0.3-0.6-0.6-0.9s-0.7-0.4-1.2-0.4c-0.6,0-1,0.1-1.4,0.3
			c-0.4,0.2-0.6,0.5-0.8,0.8c-0.2,0.4-0.3,0.7-0.4,1.2c-0.1,0.4-0.1,0.9-0.1,1.4v7.3H142V42z"/>
		<path class="st3" d="M168.1,42h4.3v2h0.1c0.1-0.3,0.3-0.6,0.6-0.8c0.3-0.3,0.6-0.5,0.9-0.8c0.4-0.2,0.8-0.4,1.2-0.5
			c0.5-0.1,1-0.2,1.5-0.2c1,0,1.9,0.2,2.7,0.6c0.8,0.4,1.4,1.1,1.8,2c0.5-0.9,1.1-1.6,1.9-2c0.7-0.4,1.6-0.6,2.7-0.6
			c1,0,1.8,0.2,2.5,0.5c0.7,0.3,1.2,0.8,1.6,1.3s0.7,1.2,0.8,2c0.2,0.8,0.3,1.6,0.3,2.5v8.6h-4.5v-8.5c0-0.7-0.1-1.3-0.4-1.8
			c-0.3-0.5-0.8-0.7-1.5-0.7c-0.5,0-1,0.1-1.3,0.3c-0.4,0.2-0.6,0.4-0.8,0.7c-0.2,0.3-0.4,0.7-0.4,1.1c-0.1,0.4-0.1,0.8-0.1,1.3v7.7
			h-4.5v-7.7c0-0.3,0-0.6,0-1c0-0.4-0.1-0.7-0.2-1.1c-0.1-0.3-0.3-0.6-0.6-0.9s-0.7-0.4-1.2-0.4c-0.6,0-1,0.1-1.4,0.3
			c-0.4,0.2-0.6,0.5-0.8,0.8c-0.2,0.4-0.3,0.7-0.4,1.2c-0.1,0.4-0.1,0.9-0.1,1.4v7.3h-4.5V42z"/>
		<path class="st3" d="M208,54c-0.7,0.9-1.6,1.6-2.7,2.1c-1.1,0.5-2.2,0.8-3.4,0.8c-1.1,0-2.2-0.2-3.2-0.5c-1-0.4-1.9-0.9-2.6-1.5
			c-0.7-0.7-1.3-1.5-1.7-2.4c-0.4-0.9-0.6-2-0.6-3.1c0-1.2,0.2-2.2,0.6-3.2c0.4-0.9,1-1.7,1.7-2.4c0.7-0.7,1.6-1.2,2.6-1.5
			c1-0.4,2-0.5,3.2-0.5c1,0,2,0.2,2.8,0.5c0.8,0.4,1.6,0.9,2.2,1.5c0.6,0.7,1,1.5,1.4,2.4c0.3,0.9,0.5,2,0.5,3.2v1.4h-10.4
			c0.2,0.9,0.6,1.5,1.2,2.1s1.3,0.8,2.2,0.8c0.7,0,1.4-0.2,1.9-0.5c0.5-0.3,1-0.8,1.3-1.3L208,54z M204.2,47.6c0-0.8-0.2-1.4-0.8-2
			c-0.5-0.5-1.2-0.8-2-0.8c-0.5,0-0.9,0.1-1.3,0.2c-0.4,0.2-0.7,0.4-1,0.6c-0.3,0.3-0.5,0.5-0.6,0.9s-0.2,0.7-0.3,1H204.2z"/>
		<path class="st3" d="M221.4,45.6h-4v4.9c0,0.4,0,0.8,0.1,1.1c0,0.3,0.1,0.6,0.3,0.9c0.1,0.2,0.4,0.4,0.6,0.6
			c0.3,0.1,0.7,0.2,1.2,0.2c0.2,0,0.6,0,0.9-0.1c0.4,0,0.7-0.2,0.9-0.3v3.8c-0.5,0.2-1,0.3-1.6,0.4c-0.5,0.1-1.1,0.1-1.6,0.1
			c-0.8,0-1.5-0.1-2.1-0.2c-0.6-0.2-1.2-0.4-1.7-0.8c-0.5-0.3-0.9-0.8-1.1-1.4c-0.3-0.6-0.4-1.2-0.4-2v-6.9H210V42h2.9v-4.3h4.5V42
			h4V45.6z"/>
		<path class="st3" d="M223.7,42h4.5v2.3h0.1c0.5-0.9,1.1-1.6,1.7-2c0.7-0.4,1.5-0.7,2.5-0.7c0.3,0,0.5,0,0.8,0
			c0.3,0,0.5,0.1,0.7,0.1v4.1c-0.3-0.1-0.6-0.2-0.9-0.2c-0.3,0-0.6-0.1-1-0.1c-0.9,0-1.5,0.1-2,0.4c-0.5,0.2-0.9,0.6-1.2,1
			c-0.3,0.4-0.4,0.9-0.5,1.5c-0.1,0.6-0.1,1.3-0.1,2v6.1h-4.5V42z"/>
		<path class="st3" d="M235.6,37.4c0-0.7,0.3-1.3,0.8-1.8c0.5-0.5,1.1-0.8,1.8-0.8c0.7,0,1.3,0.3,1.8,0.8c0.5,0.5,0.8,1.1,0.8,1.8
			c0,0.7-0.3,1.3-0.8,1.8c-0.5,0.5-1.1,0.8-1.8,0.8c-0.7,0-1.3-0.3-1.8-0.8C235.8,38.7,235.6,38.1,235.6,37.4z M235.9,42h4.5v14.6
			h-4.5V42z"/>
		<path class="st3" d="M253.5,46.7c-0.2-0.3-0.5-0.6-0.9-0.8c-0.4-0.2-0.8-0.3-1.3-0.3c-1.1,0-2,0.3-2.7,1c-0.6,0.7-0.9,1.6-0.9,2.7
			c0,1.1,0.3,2,0.9,2.7c0.6,0.7,1.5,1,2.7,1c0.5,0,0.9-0.1,1.3-0.3c0.4-0.2,0.7-0.5,0.9-0.8l3,3.1c-0.7,0.7-1.5,1.2-2.5,1.5
			c-1,0.3-1.9,0.4-2.7,0.4c-1.1,0-2.2-0.2-3.2-0.5c-1-0.4-1.9-0.9-2.6-1.5c-0.7-0.7-1.3-1.5-1.7-2.4c-0.4-0.9-0.6-2-0.6-3.1
			c0-1.2,0.2-2.2,0.6-3.2c0.4-0.9,1-1.7,1.7-2.4c0.7-0.7,1.6-1.2,2.6-1.5c1-0.4,2-0.5,3.2-0.5c0.9,0,1.8,0.1,2.7,0.4
			c0.9,0.3,1.8,0.8,2.5,1.5L253.5,46.7z"/>
		<path class="st3" d="M267.8,35.3h14.4v4.3h-9.8v4h9.2v4.3h-9.2v4.3h10.3v4.3h-15V35.3z"/>
		<path class="st3" d="M285.9,42h4.3v2h0.1c0.1-0.3,0.3-0.6,0.6-0.8c0.3-0.3,0.6-0.5,0.9-0.8c0.4-0.2,0.8-0.4,1.2-0.5
			c0.5-0.1,1-0.2,1.5-0.2c1.1,0,2.1,0.2,2.8,0.5c0.7,0.4,1.2,0.8,1.6,1.5c0.4,0.6,0.7,1.3,0.8,2.2c0.1,0.8,0.2,1.8,0.2,2.7v8h-4.5
			v-7.1c0-0.4,0-0.9,0-1.3c0-0.5-0.1-0.9-0.3-1.2c-0.1-0.4-0.4-0.7-0.7-0.9c-0.3-0.2-0.8-0.4-1.3-0.4c-0.6,0-1,0.1-1.4,0.3
			c-0.4,0.2-0.6,0.5-0.8,0.8c-0.2,0.4-0.3,0.7-0.4,1.2c-0.1,0.4-0.1,0.9-0.1,1.4v7.3h-4.5V42z"/>
		<path class="st3" d="M313,46.7c-0.2-0.3-0.5-0.6-0.9-0.8c-0.4-0.2-0.8-0.3-1.3-0.3c-1.1,0-2,0.3-2.7,1c-0.6,0.7-0.9,1.6-0.9,2.7
			c0,1.1,0.3,2,0.9,2.7c0.6,0.7,1.5,1,2.7,1c0.5,0,0.9-0.1,1.3-0.3c0.4-0.2,0.7-0.5,0.9-0.8l3,3.1c-0.7,0.7-1.5,1.2-2.5,1.5
			c-1,0.3-1.9,0.4-2.7,0.4c-1.1,0-2.2-0.2-3.2-0.5c-1-0.4-1.9-0.9-2.6-1.5c-0.7-0.7-1.3-1.5-1.7-2.4c-0.4-0.9-0.6-2-0.6-3.1
			c0-1.2,0.2-2.2,0.6-3.2c0.4-0.9,1-1.7,1.7-2.4c0.7-0.7,1.6-1.2,2.6-1.5c1-0.4,2-0.5,3.2-0.5c0.9,0,1.8,0.1,2.7,0.4
			c0.9,0.3,1.8,0.8,2.5,1.5L313,46.7z"/>
		<path class="st3" d="M317.6,42h4.5v2.3h0.1c0.5-0.9,1.1-1.6,1.7-2c0.7-0.4,1.5-0.7,2.5-0.7c0.3,0,0.5,0,0.8,0
			c0.3,0,0.5,0.1,0.7,0.1v4.1c-0.3-0.1-0.6-0.2-0.9-0.2c-0.3,0-0.6-0.1-1-0.1c-0.9,0-1.5,0.1-2,0.4c-0.5,0.2-0.9,0.6-1.2,1
			c-0.3,0.4-0.4,0.9-0.5,1.5c-0.1,0.6-0.1,1.3-0.1,2v6.1h-4.5V42z"/>
		<path class="st3" d="M338.2,58.9c-0.3,0.8-0.6,1.5-0.9,2.1s-0.6,1.1-1.1,1.5c-0.4,0.4-1,0.7-1.6,0.9s-1.5,0.3-2.6,0.3
			c-1.2,0-2.3-0.2-3.4-0.5l0.6-3.7c0.7,0.3,1.4,0.5,2.1,0.5c0.5,0,0.9-0.1,1.2-0.2c0.3-0.1,0.6-0.3,0.8-0.5s0.4-0.5,0.5-0.8
			c0.1-0.3,0.3-0.7,0.4-1l0.3-0.8L328.3,42h4.9l3.7,9.6h0.1l3.2-9.6h4.6L338.2,58.9z"/>
		<path class="st3" d="M346.9,42h4.1v1.9h0.1c0.2-0.3,0.4-0.5,0.7-0.8s0.6-0.5,1-0.7c0.4-0.2,0.8-0.4,1.3-0.5c0.5-0.1,1-0.2,1.5-0.2
			c1.1,0,2.1,0.2,2.9,0.6c0.9,0.4,1.6,0.9,2.3,1.6c0.6,0.7,1.1,1.5,1.5,2.4c0.3,0.9,0.5,1.9,0.5,3c0,1-0.2,2-0.5,2.9
			c-0.3,0.9-0.8,1.8-1.3,2.5c-0.6,0.7-1.3,1.3-2.1,1.7c-0.8,0.4-1.8,0.6-2.8,0.6c-0.9,0-1.8-0.1-2.6-0.4c-0.8-0.3-1.5-0.8-2-1.5
			h-0.1v8.4h-4.5V42z M351,49.3c0,1.1,0.3,2,0.9,2.7c0.6,0.7,1.5,1,2.7,1s2-0.3,2.7-1c0.6-0.7,0.9-1.6,0.9-2.7c0-1.1-0.3-2-0.9-2.7
			c-0.6-0.7-1.5-1-2.7-1s-2,0.3-2.7,1C351.3,47.3,351,48.2,351,49.3z"/>
		<path class="st3" d="M375.3,45.6h-4v4.9c0,0.4,0,0.8,0.1,1.1c0,0.3,0.1,0.6,0.3,0.9s0.4,0.4,0.6,0.6c0.3,0.1,0.7,0.2,1.2,0.2
			c0.2,0,0.6,0,0.9-0.1c0.4,0,0.7-0.2,0.9-0.3v3.8c-0.5,0.2-1,0.3-1.6,0.4c-0.5,0.1-1.1,0.1-1.6,0.1c-0.8,0-1.5-0.1-2.1-0.2
			c-0.6-0.2-1.2-0.4-1.7-0.8c-0.5-0.3-0.9-0.8-1.1-1.4c-0.3-0.6-0.4-1.2-0.4-2v-6.9H364V42h2.9v-4.3h4.5V42h4V45.6z"/>
		<path class="st3" d="M377.3,37.4c0-0.7,0.3-1.3,0.8-1.8c0.5-0.5,1.1-0.8,1.8-0.8c0.7,0,1.3,0.3,1.8,0.8s0.8,1.1,0.8,1.8
			c0,0.7-0.3,1.3-0.8,1.8s-1.1,0.8-1.8,0.8c-0.7,0-1.3-0.3-1.8-0.8C377.5,38.7,377.3,38.1,377.3,37.4z M377.6,42h4.5v14.6h-4.5V42z"
			/>
		<path class="st3" d="M384.8,49.3c0-1.2,0.2-2.2,0.6-3.2c0.4-0.9,1-1.7,1.7-2.4c0.7-0.7,1.6-1.2,2.6-1.5c1-0.4,2-0.5,3.2-0.5
			c1.1,0,2.2,0.2,3.2,0.5c1,0.4,1.8,0.9,2.6,1.5c0.7,0.7,1.3,1.5,1.7,2.4c0.4,0.9,0.6,2,0.6,3.2c0,1.2-0.2,2.2-0.6,3.1
			c-0.4,0.9-1,1.7-1.7,2.4c-0.7,0.7-1.6,1.2-2.6,1.5c-1,0.4-2,0.5-3.2,0.5c-1.1,0-2.2-0.2-3.2-0.5c-1-0.4-1.9-0.9-2.6-1.5
			c-0.7-0.7-1.3-1.5-1.7-2.4C385.1,51.5,384.8,50.4,384.8,49.3z M389.3,49.3c0,1.1,0.3,2,0.9,2.7c0.6,0.7,1.5,1,2.7,1
			c1.1,0,2-0.3,2.7-1c0.6-0.7,0.9-1.6,0.9-2.7c0-1.1-0.3-2-0.9-2.7c-0.6-0.7-1.5-1-2.7-1c-1.1,0-2,0.3-2.7,1
			C389.7,47.3,389.3,48.2,389.3,49.3z"/>
		<path class="st3" d="M403.7,42h4.3v2h0.1c0.1-0.3,0.3-0.6,0.6-0.8c0.3-0.3,0.6-0.5,0.9-0.8c0.4-0.2,0.8-0.4,1.2-0.5
			c0.5-0.1,1-0.2,1.5-0.2c1.1,0,2.1,0.2,2.8,0.5c0.7,0.4,1.2,0.8,1.6,1.5c0.4,0.6,0.7,1.3,0.8,2.2c0.1,0.8,0.2,1.8,0.2,2.7v8h-4.5
			v-7.1c0-0.4,0-0.9,0-1.3c0-0.5-0.1-0.9-0.3-1.2c-0.2-0.4-0.4-0.7-0.7-0.9c-0.3-0.2-0.8-0.4-1.3-0.4s-1,0.1-1.4,0.3
			c-0.4,0.2-0.6,0.5-0.8,0.8c-0.2,0.4-0.3,0.7-0.4,1.2c-0.1,0.4-0.1,0.9-0.1,1.4v7.3h-4.5V42z"/>
		<path class="st3" d="M428.3,42h4.9l3.7,9.9h0.1l3.4-9.9h4.5l-5.8,14.6h-4.8L428.3,42z"/>
		<path class="st3" d="M446.2,37.4c0-0.7,0.3-1.3,0.8-1.8c0.5-0.5,1.1-0.8,1.8-0.8c0.7,0,1.3,0.3,1.8,0.8s0.8,1.1,0.8,1.8
			c0,0.7-0.3,1.3-0.8,1.8s-1.1,0.8-1.8,0.8c-0.7,0-1.3-0.3-1.8-0.8C446.4,38.7,446.2,38.1,446.2,37.4z M446.5,42h4.5v14.6h-4.5V42z"
			/>
		<path class="st3" d="M463.4,54.7L463.4,54.7c-0.6,0.8-1.2,1.3-2.1,1.7s-1.7,0.5-2.6,0.5c-0.7,0-1.3-0.1-2-0.3
			c-0.6-0.2-1.2-0.5-1.7-0.9c-0.5-0.4-0.9-0.8-1.1-1.4c-0.3-0.6-0.4-1.2-0.4-2c0-0.8,0.2-1.5,0.5-2.1c0.3-0.6,0.7-1.1,1.3-1.4
			c0.5-0.4,1.1-0.7,1.8-0.9c0.7-0.2,1.4-0.4,2.1-0.5c0.7-0.1,1.5-0.2,2.2-0.2c0.7,0,1.4,0,2,0c0-0.8-0.3-1.4-0.9-1.9
			c-0.6-0.5-1.2-0.7-2-0.7c-0.7,0-1.4,0.2-2,0.5c-0.6,0.3-1.2,0.7-1.6,1.3l-2.4-2.5c0.8-0.8,1.8-1.4,2.9-1.8
			c1.1-0.4,2.3-0.6,3.5-0.6c1.3,0,2.4,0.2,3.3,0.5c0.9,0.3,1.5,0.8,2,1.5c0.5,0.6,0.9,1.4,1.1,2.4c0.2,0.9,0.3,2,0.3,3.2v7.4h-4.1
			V54.7z M462.3,50.2c-0.3,0-0.8,0-1.3,0c-0.5,0-1,0.1-1.5,0.3c-0.5,0.1-0.9,0.4-1.2,0.6c-0.3,0.3-0.5,0.7-0.5,1.2
			c0,0.5,0.2,0.9,0.7,1.2c0.5,0.3,0.9,0.4,1.4,0.4c0.4,0,0.9-0.1,1.3-0.2s0.8-0.3,1.1-0.5c0.3-0.2,0.6-0.5,0.8-0.8
			c0.2-0.3,0.3-0.7,0.3-1.2v-1H462.3z"/>
		<path class="st3" d="M479.8,35.3h7c1.7,0,3.3,0.2,4.8,0.6c1.5,0.4,2.9,1,4,1.8c1.1,0.9,2,2,2.7,3.3c0.7,1.4,1,3,1,5
			c0,1.7-0.3,3.2-1,4.5c-0.7,1.3-1.5,2.4-2.6,3.3c-1.1,0.9-2.4,1.6-3.8,2c-1.4,0.5-3,0.7-4.5,0.7h-7.6V35.3z M484.5,52.2h2.4
			c1.1,0,2.1-0.1,3-0.3c0.9-0.2,1.7-0.6,2.4-1.1c0.7-0.5,1.2-1.2,1.6-2c0.4-0.8,0.6-1.8,0.6-3c0-1-0.2-1.9-0.6-2.7
			c-0.4-0.8-0.9-1.4-1.6-1.9c-0.7-0.5-1.4-0.9-2.3-1.1c-0.9-0.2-1.8-0.4-2.8-0.4h-2.8V52.2z"/>
		<path class="st3" d="M515.8,54c-0.7,0.9-1.6,1.6-2.7,2.1c-1.1,0.5-2.2,0.8-3.4,0.8c-1.1,0-2.2-0.2-3.2-0.5s-1.9-0.9-2.6-1.5
			c-0.7-0.7-1.3-1.5-1.7-2.4c-0.4-0.9-0.6-2-0.6-3.1c0-1.2,0.2-2.2,0.6-3.2c0.4-0.9,1-1.7,1.7-2.4c0.7-0.7,1.6-1.2,2.6-1.5
			c1-0.4,2-0.5,3.2-0.5c1,0,2,0.2,2.8,0.5c0.8,0.4,1.6,0.9,2.2,1.5c0.6,0.7,1,1.5,1.4,2.4c0.3,0.9,0.5,2,0.5,3.2v1.4h-10.4
			c0.2,0.9,0.6,1.5,1.2,2.1c0.6,0.5,1.3,0.8,2.2,0.8c0.7,0,1.4-0.2,1.9-0.5c0.5-0.3,1-0.8,1.3-1.3L515.8,54z M512,47.6
			c0-0.8-0.2-1.4-0.8-2c-0.5-0.5-1.2-0.8-2-0.8c-0.5,0-0.9,0.1-1.3,0.2c-0.4,0.2-0.7,0.4-1,0.6c-0.3,0.3-0.5,0.5-0.6,0.9
			c-0.1,0.3-0.2,0.7-0.3,1H512z"/>
		<path class="st3" d="M529.1,46.7c-0.2-0.3-0.5-0.6-0.9-0.8c-0.4-0.2-0.8-0.3-1.3-0.3c-1.1,0-2,0.3-2.7,1c-0.6,0.7-0.9,1.6-0.9,2.7
			c0,1.1,0.3,2,0.9,2.7c0.6,0.7,1.5,1,2.7,1c0.5,0,0.9-0.1,1.3-0.3c0.4-0.2,0.7-0.5,0.9-0.8l3,3.1c-0.7,0.7-1.5,1.2-2.5,1.5
			c-1,0.3-1.9,0.4-2.7,0.4c-1.1,0-2.2-0.2-3.2-0.5s-1.9-0.9-2.6-1.5c-0.7-0.7-1.3-1.5-1.7-2.4c-0.4-0.9-0.6-2-0.6-3.1
			c0-1.2,0.2-2.2,0.6-3.2c0.4-0.9,1-1.7,1.7-2.4c0.7-0.7,1.6-1.2,2.6-1.5c1-0.4,2-0.5,3.2-0.5c0.9,0,1.8,0.1,2.7,0.4
			c0.9,0.3,1.8,0.8,2.5,1.5L529.1,46.7z"/>
		<path class="st3" d="M533.2,49.3c0-1.2,0.2-2.2,0.6-3.2c0.4-0.9,1-1.7,1.7-2.4c0.7-0.7,1.6-1.2,2.6-1.5c1-0.4,2-0.5,3.2-0.5
			c1.1,0,2.2,0.2,3.2,0.5c1,0.4,1.8,0.9,2.6,1.5c0.7,0.7,1.3,1.5,1.7,2.4c0.4,0.9,0.6,2,0.6,3.2c0,1.2-0.2,2.2-0.6,3.1
			c-0.4,0.9-1,1.7-1.7,2.4c-0.7,0.7-1.6,1.2-2.6,1.5c-1,0.4-2,0.5-3.2,0.5c-1.1,0-2.2-0.2-3.2-0.5c-1-0.4-1.9-0.9-2.6-1.5
			c-0.7-0.7-1.3-1.5-1.7-2.4C533.4,51.5,533.2,50.4,533.2,49.3z M537.7,49.3c0,1.1,0.3,2,0.9,2.7c0.6,0.7,1.5,1,2.7,1
			c1.1,0,2-0.3,2.7-1c0.6-0.7,0.9-1.6,0.9-2.7c0-1.1-0.3-2-0.9-2.7c-0.6-0.7-1.5-1-2.7-1c-1.1,0-2,0.3-2.7,1
			C538,47.3,537.7,48.2,537.7,49.3z"/>
		<path class="st3" d="M567.3,56.5h-4.1v-1.9h-0.1c-0.2,0.3-0.4,0.5-0.7,0.8c-0.3,0.3-0.6,0.5-1,0.7c-0.4,0.2-0.8,0.4-1.3,0.5
			c-0.5,0.1-1,0.2-1.5,0.2c-1.1,0-2.1-0.2-2.9-0.6c-0.9-0.4-1.6-0.9-2.3-1.6c-0.6-0.7-1.1-1.5-1.5-2.4c-0.3-0.9-0.5-1.9-0.5-3
			c0-1,0.2-2,0.5-2.9c0.3-0.9,0.8-1.8,1.3-2.5s1.3-1.3,2.1-1.7c0.8-0.4,1.8-0.6,2.8-0.6c0.9,0,1.8,0.1,2.6,0.4
			c0.8,0.3,1.5,0.8,2,1.5h0.1v-9.7h4.5V56.5z M563.2,49.3c0-1.1-0.3-2-0.9-2.7c-0.6-0.7-1.5-1-2.7-1c-1.1,0-2,0.3-2.7,1
			c-0.6,0.7-0.9,1.6-0.9,2.7c0,1.1,0.3,2,0.9,2.7c0.6,0.7,1.5,1,2.7,1c1.1,0,2-0.3,2.7-1C562.8,51.2,563.2,50.4,563.2,49.3z"/>
		<path class="st3" d="M570.6,37.4c0-0.7,0.3-1.3,0.8-1.8c0.5-0.5,1.1-0.8,1.8-0.8c0.7,0,1.3,0.3,1.8,0.8s0.8,1.1,0.8,1.8
			c0,0.7-0.3,1.3-0.8,1.8s-1.1,0.8-1.8,0.8c-0.7,0-1.3-0.3-1.8-0.8C570.9,38.7,570.6,38.1,570.6,37.4z M571,42h4.5v14.6H571V42z"/>
		<path class="st3" d="M578.7,42h4.3v2h0.1c0.1-0.3,0.3-0.6,0.6-0.8c0.3-0.3,0.6-0.5,0.9-0.8c0.4-0.2,0.8-0.4,1.2-0.5
			c0.5-0.1,1-0.2,1.5-0.2c1.1,0,2.1,0.2,2.8,0.5c0.7,0.4,1.2,0.8,1.6,1.5c0.4,0.6,0.7,1.3,0.8,2.2c0.1,0.8,0.2,1.8,0.2,2.7v8h-4.5
			v-7.1c0-0.4,0-0.9,0-1.3c0-0.5-0.1-0.9-0.3-1.2c-0.2-0.4-0.4-0.7-0.7-0.9c-0.3-0.2-0.8-0.4-1.3-0.4s-1,0.1-1.4,0.3
			c-0.4,0.2-0.6,0.5-0.8,0.8c-0.2,0.4-0.3,0.7-0.4,1.2c-0.1,0.4-0.1,0.9-0.1,1.4v7.3h-4.5V42z"/>
		<path class="st3" d="M611.2,55.3c0,2.8-0.7,4.9-2.1,6.3c-1.4,1.4-3.5,2.1-6.3,2.1c-1.3,0-2.6-0.1-3.8-0.4
			c-1.3-0.3-2.4-0.9-3.5-1.7l2.5-3.7c0.7,0.6,1.4,1,2.2,1.4c0.8,0.3,1.6,0.5,2.5,0.5c1.4,0,2.4-0.3,3-1c0.6-0.7,1-1.5,1-2.6v-1.4
			h-0.1c-0.5,0.7-1.2,1.2-1.9,1.5c-0.8,0.3-1.5,0.4-2.2,0.4c-1.1,0-2.1-0.2-2.9-0.6c-0.9-0.4-1.6-0.9-2.3-1.6
			c-0.6-0.7-1.1-1.5-1.5-2.4c-0.3-0.9-0.5-1.9-0.5-3c0-1,0.2-1.9,0.5-2.8c0.3-0.9,0.8-1.7,1.3-2.4c0.6-0.7,1.3-1.3,2.1-1.7
			c0.8-0.4,1.8-0.6,2.8-0.6c0.6,0,1.2,0.1,1.8,0.2c0.5,0.1,1,0.3,1.4,0.5c0.4,0.2,0.8,0.5,1.1,0.7s0.5,0.5,0.7,0.8h0.1V42h4.1V55.3z
			 M599.9,49.2c0,0.5,0.1,0.9,0.3,1.4c0.2,0.4,0.4,0.8,0.8,1.1c0.3,0.3,0.7,0.6,1.1,0.8c0.4,0.2,0.9,0.3,1.4,0.3
			c0.5,0,1-0.1,1.4-0.3c0.4-0.2,0.8-0.5,1.2-0.8c0.3-0.3,0.6-0.7,0.8-1.1c0.2-0.4,0.3-0.9,0.3-1.4s-0.1-0.9-0.3-1.4
			c-0.2-0.4-0.4-0.8-0.8-1.1c-0.3-0.3-0.7-0.6-1.2-0.8c-0.4-0.2-0.9-0.3-1.4-0.3c-0.5,0-1,0.1-1.4,0.3c-0.4,0.2-0.8,0.5-1.1,0.8
			c-0.3,0.3-0.6,0.7-0.8,1.1C600,48.2,599.9,48.7,599.9,49.2z"/>
		<path class="st3" d="M624.3,35.3h8.2c1.1,0,2.1,0.1,3.1,0.3c1,0.2,1.8,0.6,2.5,1c0.7,0.5,1.3,1.2,1.7,2c0.4,0.8,0.6,1.9,0.6,3.1
			c0,1.5-0.4,2.8-1.2,3.8c-0.8,1.1-1.9,1.7-3.4,2l5.4,9h-5.6l-4.4-8.5h-2.3v8.5h-4.7V35.3z M628.9,44.1h2.8c0.4,0,0.9,0,1.3,0
			s0.9-0.1,1.3-0.3c0.4-0.1,0.7-0.4,0.9-0.7c0.2-0.3,0.4-0.8,0.4-1.3c0-0.5-0.1-1-0.3-1.3c-0.2-0.3-0.5-0.6-0.8-0.7
			c-0.3-0.2-0.7-0.3-1.2-0.3c-0.4-0.1-0.9-0.1-1.3-0.1h-3.1V44.1z"/>
		<path class="st3" d="M642.8,37.4c0-0.7,0.3-1.3,0.8-1.8c0.5-0.5,1.1-0.8,1.8-0.8c0.7,0,1.3,0.3,1.8,0.8s0.8,1.1,0.8,1.8
			c0,0.7-0.3,1.3-0.8,1.8s-1.1,0.8-1.8,0.8c-0.7,0-1.3-0.3-1.8-0.8C643.1,38.7,642.8,38.1,642.8,37.4z M643.2,42h4.5v14.6h-4.5V42z"
			/>
		<path class="st3" d="M650.9,42h4.3v2h0.1c0.1-0.3,0.3-0.6,0.6-0.8c0.3-0.3,0.6-0.5,0.9-0.8c0.4-0.2,0.8-0.4,1.2-0.5
			c0.5-0.1,1-0.2,1.5-0.2c1.1,0,2.1,0.2,2.8,0.5c0.7,0.4,1.2,0.8,1.6,1.5c0.4,0.6,0.7,1.3,0.8,2.2c0.1,0.8,0.2,1.8,0.2,2.7v8h-4.5
			v-7.1c0-0.4,0-0.9,0-1.3c0-0.5-0.1-0.9-0.3-1.2c-0.2-0.4-0.4-0.7-0.7-0.9c-0.3-0.2-0.8-0.4-1.3-0.4s-1,0.1-1.4,0.3
			c-0.4,0.2-0.6,0.5-0.8,0.8c-0.2,0.4-0.3,0.7-0.4,1.2c-0.1,0.4-0.1,0.9-0.1,1.4v7.3h-4.5V42z"/>
		<path class="st3" d="M683.5,55.3c0,2.8-0.7,4.9-2.1,6.3c-1.4,1.4-3.5,2.1-6.3,2.1c-1.3,0-2.6-0.1-3.8-0.4
			c-1.3-0.3-2.4-0.9-3.5-1.7l2.5-3.7c0.7,0.6,1.4,1,2.2,1.4c0.8,0.3,1.6,0.5,2.5,0.5c1.4,0,2.4-0.3,3-1c0.6-0.7,1-1.5,1-2.6v-1.4
			h-0.1c-0.5,0.7-1.2,1.2-1.9,1.5c-0.8,0.3-1.5,0.4-2.2,0.4c-1.1,0-2.1-0.2-2.9-0.6c-0.9-0.4-1.6-0.9-2.3-1.6
			c-0.6-0.7-1.1-1.5-1.5-2.4c-0.3-0.9-0.5-1.9-0.5-3c0-1,0.2-1.9,0.5-2.8c0.3-0.9,0.8-1.7,1.3-2.4c0.6-0.7,1.3-1.3,2.1-1.7
			c0.8-0.4,1.8-0.6,2.8-0.6c0.6,0,1.2,0.1,1.8,0.2c0.5,0.1,1,0.3,1.4,0.5c0.4,0.2,0.8,0.5,1.1,0.7s0.5,0.5,0.7,0.8h0.1V42h4.1V55.3z
			 M672.1,49.2c0,0.5,0.1,0.9,0.3,1.4c0.2,0.4,0.4,0.8,0.8,1.1c0.3,0.3,0.7,0.6,1.1,0.8c0.4,0.2,0.9,0.3,1.4,0.3
			c0.5,0,1-0.1,1.4-0.3c0.4-0.2,0.8-0.5,1.2-0.8c0.3-0.3,0.6-0.7,0.8-1.1c0.2-0.4,0.3-0.9,0.3-1.4s-0.1-0.9-0.3-1.4
			c-0.2-0.4-0.4-0.8-0.8-1.1c-0.3-0.3-0.7-0.6-1.2-0.8c-0.4-0.2-0.9-0.3-1.4-0.3c-0.5,0-1,0.1-1.4,0.3c-0.4,0.2-0.8,0.5-1.1,0.8
			c-0.3,0.3-0.6,0.7-0.8,1.1C672.2,48.2,672.1,48.7,672.1,49.2z"/>
	</g>
	<g>
	</g>
	<g>
	</g>
	<g>
	</g>
	<g>
	</g>
	<g>
	</g>
	<g>
	</g>
</g>
</svg>
