<svg id="Layer_1" data-name="Layer 1" xmlns="http://www.w3.org/2000/svg" xmlns:xlink="http://www.w3.org/1999/xlink" width="837.8" height="669.88" viewBox="0 0 837.8 669.88">
  <defs>
    <style>
      .cls-1, .cls-3 {
        fill: none;
      }

      .cls-2 {
        fill: #00202c;
      }

      .cls-3 {
        stroke: #97ca38;
        stroke-miterlimit: 10;
        stroke-width: 2px;
      }

      .cls-4 {
        fill: #eaeaea;
      }

      .cls-5 {
        fill: #007eb1;
      }

      .cls-6 {
        fill: #1c3747;
      }

      .cls-7 {
        clip-path: url(#clip-path);
      }

      .cls-8 {
        clip-path: url(#clip-path-3);
      }

      .cls-9 {
        clip-path: url(#clip-path-5);
      }

      .cls-10 {
        clip-path: url(#clip-path-7);
      }

      .cls-11 {
        clip-path: url(#clip-path-9);
      }

      .cls-12 {
        clip-path: url(#clip-path-11);
      }

      .cls-13 {
        clip-path: url(#clip-path-13);
      }

      .cls-14 {
        clip-path: url(#clip-path-15);
      }
    </style>
    <clipPath id="clip-path" transform="translate(-251.99 -42.21)">
      <rect class="cls-1" x="932.95" y="576.16" width="156.84" height="135.93"/>
    </clipPath>
    <clipPath id="clip-path-3" transform="translate(-251.99 -42.21)">
      <rect class="cls-1" x="827.89" y="424.78" width="156.84" height="135.93"/>
    </clipPath>
    <clipPath id="clip-path-5" transform="translate(-251.99 -42.21)">
      <rect class="cls-1" x="722.83" y="576.16" width="156.84" height="135.93"/>
    </clipPath>
    <clipPath id="clip-path-7" transform="translate(-251.99 -42.21)">
      <rect class="cls-1" x="374.54" y="262.04" width="126.38" height="126.38"/>
    </clipPath>
    <clipPath id="clip-path-9" transform="translate(-251.99 -42.21)">
      <rect class="cls-1" x="840.87" y="262.04" width="126.38" height="126.38"/>
    </clipPath>
    <clipPath id="clip-path-11" transform="translate(-251.99 -42.21)">
      <rect class="cls-1" x="462.12" y="576.16" width="156.84" height="135.93"/>
    </clipPath>
    <clipPath id="clip-path-13" transform="translate(-251.99 -42.21)">
      <rect class="cls-1" x="357.06" y="424.78" width="156.84" height="135.93"/>
    </clipPath>
    <clipPath id="clip-path-15" transform="translate(-251.99 -42.21)">
      <rect class="cls-1" x="251.99" y="576.16" width="156.84" height="135.93"/>
    </clipPath>
  </defs>
  <g>
    <path class="cls-2" d="M554.14,126.19c-25.69,0-42.21-17.44-44-19.42a1.92,1.92,0,0,1,0-2.59c1.8-2,18.32-19.42,44-19.42s42.21,17.43,44,19.42l.46.51v1.57l-.46.51C596.35,108.75,579.82,126.19,554.14,126.19Zm-40.35-20.72a61.82,61.82,0,0,0,11,8.59,54.33,54.33,0,0,0,58.64,0,61.26,61.26,0,0,0,11-8.59,61.81,61.81,0,0,0-11-8.58,54.33,54.33,0,0,0-58.64,0A62.37,62.37,0,0,0,513.79,105.47Z" transform="translate(-251.99 -42.21)"/>
    <path class="cls-2" d="M554.12,118.08A12.14,12.14,0,1,1,566.25,106,12.15,12.15,0,0,1,554.12,118.08Zm0-20.73a8.6,8.6,0,1,0,8.59,8.6A8.6,8.6,0,0,0,554.12,97.35Z" transform="translate(-251.99 -42.21)"/>
    <circle class="cls-2" cx="302.12" cy="64.45" r="4.48"/>
  </g>
  <g>
    <rect class="cls-2" x="274.18" y="105.25" width="4.46" height="62.47" rx="2.23"/>
    <circle class="cls-2" cx="276.42" cy="123.41" r="7.68"/>
    <rect class="cls-2" x="292.24" y="105.25" width="4.46" height="62.47" rx="2.23"/>
    <circle class="cls-2" cx="294.47" cy="151.64" r="7.68"/>
    <rect class="cls-2" x="309.39" y="105.25" width="4.46" height="62.47" rx="2.23"/>
    <circle class="cls-2" cx="311.63" cy="120.91" r="7.68"/>
    <rect class="cls-2" x="327.45" y="105.25" width="4.46" height="62.47" rx="2.23"/>
    <circle class="cls-2" cx="329.69" cy="142.9" r="7.68"/>
  </g>
  <g>
    <path class="cls-2" d="M523.49,67V42.6h3.44L534.76,55a69.41,69.41,0,0,1,4.39,7.94l.07,0c-.29-3.26-.36-6.23-.36-10V42.6h3V67h-3.19l-7.76-12.4a79.44,79.44,0,0,1-4.57-8.16l-.1,0c.18,3.08.25,6,.25,10.08V67Z" transform="translate(-251.99 -42.21)"/>
    <path class="cls-2" d="M551.3,59.35,548.76,67H545.5l8.3-24.44h3.8L565.94,67h-3.37L560,59.35Zm8-2.46-2.39-7c-.55-1.6-.91-3-1.27-4.46h-.08c-.36,1.45-.76,2.93-1.23,4.42L552,56.89Z" transform="translate(-251.99 -42.21)"/>
    <path class="cls-2" d="M586.07,66.24a15.67,15.67,0,0,1-6.46,1.16c-6.88,0-12.07-4.35-12.07-12.36,0-7.65,5.19-12.83,12.76-12.83a13.17,13.17,0,0,1,5.8,1.08l-.76,2.58a11.46,11.46,0,0,0-4.93-1c-5.73,0-9.53,3.66-9.53,10.08,0,6,3.44,9.83,9.39,9.83a12.58,12.58,0,0,0,5.15-1Z" transform="translate(-251.99 -42.21)"/>
  </g>
  <line class="cls-3" x1="185.73" y1="346.21" x2="185.73" y2="386.3"/>
  <line class="cls-3" x1="654.32" y1="346.21" x2="654.32" y2="386.3"/>
  <line class="cls-3" x1="652.07" y1="283.02" x2="419.65" y2="129"/>
  <line class="cls-3" x1="185.73" y1="283.02" x2="418.51" y2="129"/>
  <g>
    <g>
      <circle class="cls-4" cx="418.51" cy="129" r="63.19"/>
      <path class="cls-5" d="M670.51,235.6a64.39,64.39,0,1,1,64.38-64.39A64.46,64.46,0,0,1,670.51,235.6Zm0-126.38a62,62,0,1,0,62,62A62.06,62.06,0,0,0,670.51,109.22Z" transform="translate(-251.99 -42.21)"/>
    </g>
    <g id="static-arrow_long_up-darkblue">
      <path class="cls-6" d="M657.55,140.12a1.34,1.34,0,0,1,0-2l11.93-11.34a1.54,1.54,0,0,1,2.08,0l11.93,11.33a1.33,1.33,0,0,1,0,2l-1.36,1.3a1.54,1.54,0,0,1-2.11,0l-7-7v16.76a1.43,1.43,0,0,1-1.47,1.4h-2a1.43,1.43,0,0,1-1.47-1.4V134.36l-7.05,7a1.52,1.52,0,0,1-2.1,0Z" transform="translate(-251.99 -42.21)"/>
    </g>
    <g id="static-arrow_long_up-darkblue-2" data-name="static-arrow_long_up-darkblue">
      <path class="cls-6" d="M683.46,203a1.33,1.33,0,0,1,0,2l-11.93,11.34a1.52,1.52,0,0,1-2.08,0L657.52,205a1.34,1.34,0,0,1,0-2l1.36-1.3a1.54,1.54,0,0,1,2.11,0l7,7V192a1.43,1.43,0,0,1,1.47-1.4h2a1.44,1.44,0,0,1,1.47,1.4v16.77l7-7a1.51,1.51,0,0,1,2.1,0Z" transform="translate(-251.99 -42.21)"/>
    </g>
    <g id="static-arrow_long_up-darkblue-3" data-name="static-arrow_long_up-darkblue">
      <path class="cls-6" d="M703.29,184.53a1.34,1.34,0,0,1-2,0L690,172.6a1.52,1.52,0,0,1,0-2.08l11.33-11.94a1.35,1.35,0,0,1,2,0l1.3,1.37a1.52,1.52,0,0,1,0,2.1l-7,7h16.76a1.44,1.44,0,0,1,1.4,1.48v2a1.44,1.44,0,0,1-1.4,1.48H697.53l7,7a1.54,1.54,0,0,1,0,2.11Z" transform="translate(-251.99 -42.21)"/>
    </g>
    <g id="static-arrow_long_up-darkblue-4" data-name="static-arrow_long_up-darkblue">
      <path class="cls-6" d="M637.72,158.61a1.36,1.36,0,0,1,2,0L651,170.55a1.52,1.52,0,0,1,0,2.08l-11.33,11.93a1.33,1.33,0,0,1-2,0l-1.3-1.36a1.53,1.53,0,0,1,0-2.11l7-7H626.72a1.44,1.44,0,0,1-1.4-1.47v-2a1.43,1.43,0,0,1,1.4-1.47h16.76l-7-7a1.53,1.53,0,0,1,0-2.11Z" transform="translate(-251.99 -42.21)"/>
    </g>
  </g>
  <g id="Desktop_Monitor" data-name="Desktop Monitor">
    <g class="cls-7">
      <g class="cls-7">
        <path class="cls-5" d="M1082.53,576.16H940.22a7.27,7.27,0,0,0-7.27,7.27v92.63a7.27,7.27,0,0,0,7.27,7.27h142.31a7.27,7.27,0,0,0,7.27-7.27V583.43a7.27,7.27,0,0,0-7.27-7.27m-72.34,103.12a3.71,3.71,0,1,1,3.71-3.71,3.71,3.71,0,0,1-3.71,3.71M1082,663a6.35,6.35,0,0,1-6.12,6H945.29c-3.15,0-4.49-2.88-4.49-6V589.28c0-3.08,1.34-5.28,4.49-5.28h130.54c3.15,0,6.12,2.2,6.12,5.28Zm-39.37,41.25h-10.71a3.74,3.74,0,0,1-3.53-3.88l-2.51-9.33a3.83,3.83,0,0,0-4.06-3.78H999.4a3.88,3.88,0,0,0-4.06,3.84l-2.49,9.38a3.64,3.64,0,0,1-3.53,3.77H979.2a3.93,3.93,0,0,0,0,7.85h63.38a3.93,3.93,0,0,0,0-7.85" transform="translate(-251.99 -42.21)"/>
      </g>
    </g>
  </g>
  <g id="Desktop_Monitor-2" data-name="Desktop Monitor">
    <g class="cls-8">
      <g class="cls-8">
        <path class="cls-5" d="M977.46,424.78H835.16a7.27,7.27,0,0,0-7.27,7.27v92.63a7.27,7.27,0,0,0,7.27,7.27h142.3a7.26,7.26,0,0,0,7.27-7.27V432.05a7.26,7.26,0,0,0-7.27-7.27M905.12,527.9a3.71,3.71,0,1,1,3.71-3.71,3.71,3.71,0,0,1-3.71,3.71m71.77-16.29a6.36,6.36,0,0,1-6.12,6H840.22c-3.14,0-4.49-2.89-4.49-6V437.9c0-3.07,1.35-5.28,4.49-5.28H970.77c3.15,0,6.12,2.21,6.12,5.28Zm-39.38,41.26H926.8a3.75,3.75,0,0,1-3.52-3.89l-2.51-9.33a3.83,3.83,0,0,0-4.06-3.77H894.34a3.87,3.87,0,0,0-4.06,3.83l-2.5,9.38a3.65,3.65,0,0,1-3.52,3.78H874.14a3.92,3.92,0,0,0,0,7.84h63.37a3.92,3.92,0,0,0,0-7.84" transform="translate(-251.99 -42.21)"/>
      </g>
    </g>
  </g>
  <g id="Desktop_Monitor-3" data-name="Desktop Monitor">
    <g class="cls-9">
      <g class="cls-9">
        <path class="cls-5" d="M872.4,576.16H730.1a7.26,7.26,0,0,0-7.27,7.27v92.63a7.26,7.26,0,0,0,7.27,7.27H872.4a7.26,7.26,0,0,0,7.27-7.27V583.43a7.26,7.26,0,0,0-7.27-7.27M800.06,679.28a3.71,3.71,0,1,1,3.71-3.71,3.71,3.71,0,0,1-3.71,3.71M871.83,663a6.36,6.36,0,0,1-6.12,6H735.16c-3.15,0-4.49-2.88-4.49-6V589.28c0-3.08,1.34-5.28,4.49-5.28H865.71c3.14,0,6.12,2.2,6.12,5.28Zm-39.38,41.25H821.74a3.74,3.74,0,0,1-3.53-3.88l-2.5-9.33a3.83,3.83,0,0,0-4.06-3.78H789.27a3.88,3.88,0,0,0-4.06,3.84l-2.49,9.38a3.64,3.64,0,0,1-3.53,3.77H769.08a3.93,3.93,0,0,0,0,7.85h63.37a3.93,3.93,0,0,0,0-7.85" transform="translate(-251.99 -42.21)"/>
      </g>
    </g>
  </g>
  <g id="Firewall_Flat" data-name="Firewall Flat">
    <g class="cls-10">
      <g class="cls-10">
        <path class="cls-4" d="M437.74,387.27A62,62,0,1,1,481.6,369.1a61.63,61.63,0,0,1-43.86,18.17" transform="translate(-251.99 -42.21)"/>
        <path class="cls-5" d="M437.74,264.31A60.71,60.71,0,1,1,414,269.1a60.48,60.48,0,0,1,23.72-4.79m0-2.21a63.14,63.14,0,1,0,63.13,63.14,63.14,63.14,0,0,0-63.13-63.14" transform="translate(-251.99 -42.21)"/>
        <rect class="cls-6" x="143.94" y="255.8" width="28.1" height="16.29" rx="0.22"/>
        <path class="cls-4" d="M423.25,313.52H396.7V298.78h26.55Zm.56-16.29H396.14a1,1,0,0,0-1,1v15.86a1,1,0,0,0,1,1h27.67a1,1,0,0,0,1-1V298.22a1,1,0,0,0-1-1" transform="translate(-251.99 -42.21)"/>
        <rect class="cls-6" x="143.94" y="297.82" width="28.1" height="16.29" rx="0.22"/>
        <path class="cls-4" d="M423.25,355.54H396.7V340.8h26.55Zm.56-16.29H396.14a1,1,0,0,0-1,1V356.1a1,1,0,0,0,1,1h27.67a1,1,0,0,0,1-1V340.24a1,1,0,0,0-1-1" transform="translate(-251.99 -42.21)"/>
        <rect class="cls-6" x="176.13" y="255.8" width="28.1" height="16.29" rx="0.22"/>
        <path class="cls-4" d="M455.44,313.52H428.9V298.78h26.54Zm.56-16.29H428.34a1,1,0,0,0-1,1v15.86a1,1,0,0,0,1,1H456a1,1,0,0,0,1-1V298.22a1,1,0,0,0-1-1" transform="translate(-251.99 -42.21)"/>
        <rect class="cls-6" x="176.13" y="297.82" width="28.1" height="16.29" rx="0.22"/>
        <path class="cls-4" d="M455.44,355.54H428.9V340.8h26.54Zm.56-16.29H428.34a1,1,0,0,0-1,1V356.1a1,1,0,0,0,1,1H456a1,1,0,0,0,1-1V340.24a1,1,0,0,0-1-1" transform="translate(-251.99 -42.21)"/>
        <rect class="cls-6" x="143.94" y="276.28" width="60.29" height="17.34" rx="0.7"/>
        <path class="cls-4" d="M455.44,335.05H396.7V319.27h58.74Zm.08-17.33H396.63a1.48,1.48,0,0,0-1.48,1.47v15.94a1.48,1.48,0,0,0,1.48,1.47h58.89a1.47,1.47,0,0,0,1.47-1.47V319.19a1.47,1.47,0,0,0-1.47-1.47" transform="translate(-251.99 -42.21)"/>
        <path class="cls-6" d="M454.65,359l-.35-.14c-.48-.21-12-5.14-15.05-15.58-1.8-6.17-.27-12.85,4.56-19.85l0-.06,0-.06c11.57-14.15,11.84-16.45,13-26.14l.35-3,2.5,1.48a76.59,76.59,0,0,1,12.53,9.81c8.47,8.14,13.39,16.88,14.24,25.25,1,9.78-3.35,19.13-12.89,27.81l-.54.49Z" transform="translate(-251.99 -42.21)"/>
        <path class="cls-4" d="M458.76,297.23s48,28.57,13.58,59.86H455s-24.95-10.47-9.67-32.62c12-14.64,12.22-17.18,13.4-27.24M455.7,291l-.68,5.77v.13c-.57,4.85-.89,7.51-2.35,10.68s-4.37,7.34-10.22,14.49l-.1.12-.08.12c-5.17,7.49-6.79,14.71-4.81,21.45,3.3,11.29,15.6,16.56,16.13,16.78l.69.3H473.8l1.08-1c10-9.11,14.54-19,13.49-29.4a35.34,35.34,0,0,0-5.41-15,59.29,59.29,0,0,0-9.39-11.38A79.61,79.61,0,0,0,460.69,294Z" transform="translate(-251.99 -42.21)"/>
        <path class="cls-4" d="M463.68,334.22s18.31,10.92,5.19,22.87h-6.62s-9.53-4-3.69-12.46c4.57-5.59,4.67-6.56,5.12-10.41" transform="translate(-251.99 -42.21)"/>
      </g>
    </g>
  </g>
  <g id="Firewall_Flat-2" data-name="Firewall Flat">
    <g class="cls-11">
      <g class="cls-11">
        <path class="cls-4" d="M904.07,387.27a62,62,0,1,1,43.86-18.17,61.59,61.59,0,0,1-43.86,18.17" transform="translate(-251.99 -42.21)"/>
        <path class="cls-5" d="M904.07,264.31a60.71,60.71,0,1,1-23.72,4.79,60.48,60.48,0,0,1,23.72-4.79m0-2.21a63.14,63.14,0,1,0,63.14,63.14,63.14,63.14,0,0,0-63.14-63.14" transform="translate(-251.99 -42.21)"/>
        <rect class="cls-6" x="610.27" y="255.8" width="28.1" height="16.29" rx="0.22"/>
        <path class="cls-4" d="M889.58,313.52H863V298.78h26.54Zm.56-16.29H862.48a1,1,0,0,0-1,1v15.86a1,1,0,0,0,1,1h27.66a1,1,0,0,0,1-1V298.22a1,1,0,0,0-1-1" transform="translate(-251.99 -42.21)"/>
        <rect class="cls-6" x="610.27" y="297.82" width="28.1" height="16.29" rx="0.22"/>
        <path class="cls-4" d="M889.58,355.54H863V340.8h26.54Zm.56-16.29H862.48a1,1,0,0,0-1,1V356.1a1,1,0,0,0,1,1h27.66a1,1,0,0,0,1-1V340.24a1,1,0,0,0-1-1" transform="translate(-251.99 -42.21)"/>
        <rect class="cls-6" x="642.46" y="255.8" width="28.1" height="16.29" rx="0.22"/>
        <path class="cls-4" d="M921.78,313.52H895.23V298.78h26.55Zm.56-16.29H894.67a1,1,0,0,0-1,1v15.86a1,1,0,0,0,1,1h27.67a1,1,0,0,0,1-1V298.22a1,1,0,0,0-1-1" transform="translate(-251.99 -42.21)"/>
        <rect class="cls-6" x="642.46" y="297.82" width="28.1" height="16.29" rx="0.22"/>
        <path class="cls-4" d="M921.78,355.54H895.23V340.8h26.55Zm.56-16.29H894.67a1,1,0,0,0-1,1V356.1a1,1,0,0,0,1,1h27.67a1,1,0,0,0,1-1V340.24a1,1,0,0,0-1-1" transform="translate(-251.99 -42.21)"/>
        <rect class="cls-6" x="610.27" y="276.28" width="60.29" height="17.34" rx="0.7"/>
        <path class="cls-4" d="M921.78,335.05H863V319.27h58.74Zm.07-17.33H863a1.47,1.47,0,0,0-1.47,1.47v15.94A1.47,1.47,0,0,0,863,336.6h58.89a1.48,1.48,0,0,0,1.48-1.47V319.19a1.48,1.48,0,0,0-1.48-1.47" transform="translate(-251.99 -42.21)"/>
        <path class="cls-6" d="M921,359l-.35-.14c-.49-.21-12-5.14-15-15.58-1.81-6.17-.28-12.85,4.55-19.85l0-.06.05-.06c11.57-14.15,11.84-16.45,13-26.14l.35-3,2.5,1.48a76.9,76.9,0,0,1,12.54,9.81c8.46,8.14,13.39,16.88,14.23,25.25,1,9.78-3.35,19.13-12.88,27.81l-.54.49Z" transform="translate(-251.99 -42.21)"/>
        <path class="cls-4" d="M925.1,297.23s47.95,28.57,13.58,59.86H921.37s-25-10.47-9.68-32.62c12-14.64,12.22-17.18,13.41-27.24M922,291l-.68,5.77v.13c-.57,4.85-.89,7.51-2.35,10.68s-4.37,7.34-10.22,14.49l-.09.12-.09.12c-5.17,7.49-6.78,14.71-4.81,21.45,3.31,11.29,15.61,16.56,16.13,16.78l.7.3h19.53l1.07-1c10-9.11,14.54-19,13.49-29.4a35.34,35.34,0,0,0-5.41-15,59.29,59.29,0,0,0-9.39-11.38A79.13,79.13,0,0,0,927,294Z" transform="translate(-251.99 -42.21)"/>
        <path class="cls-4" d="M930,334.22s18.32,10.92,5.19,22.87h-6.61s-9.53-4-3.7-12.46c4.57-5.59,4.67-6.56,5.12-10.41" transform="translate(-251.99 -42.21)"/>
      </g>
    </g>
  </g>
  <g id="Desktop_Monitor-4" data-name="Desktop Monitor">
    <g class="cls-12">
      <g class="cls-12">
        <path class="cls-5" d="M611.69,576.16H469.39a7.26,7.26,0,0,0-7.27,7.27v92.63a7.26,7.26,0,0,0,7.27,7.27h142.3a7.26,7.26,0,0,0,7.27-7.27V583.43a7.26,7.26,0,0,0-7.27-7.27M539.35,679.28a3.71,3.71,0,1,1,3.71-3.71,3.71,3.71,0,0,1-3.71,3.71M611.12,663a6.36,6.36,0,0,1-6.12,6H474.45c-3.15,0-4.49-2.88-4.49-6V589.28c0-3.08,1.34-5.28,4.49-5.28H605c3.14,0,6.12,2.2,6.12,5.28Zm-39.38,41.25H561a3.74,3.74,0,0,1-3.53-3.88L555,691a3.83,3.83,0,0,0-4.06-3.78H528.56a3.88,3.88,0,0,0-4.06,3.84L522,700.47a3.64,3.64,0,0,1-3.53,3.77H508.37a3.93,3.93,0,0,0,0,7.85h63.37a3.93,3.93,0,0,0,0-7.85" transform="translate(-251.99 -42.21)"/>
      </g>
    </g>
  </g>
  <g id="Desktop_Monitor-5" data-name="Desktop Monitor">
    <g class="cls-13">
      <g class="cls-13">
        <path class="cls-5" d="M506.63,424.78H364.33a7.26,7.26,0,0,0-7.27,7.27v92.63a7.26,7.26,0,0,0,7.27,7.27h142.3a7.27,7.27,0,0,0,7.27-7.27V432.05a7.27,7.27,0,0,0-7.27-7.27M434.29,527.9a3.71,3.71,0,1,1,3.71-3.71,3.71,3.71,0,0,1-3.71,3.71m71.77-16.29a6.37,6.37,0,0,1-6.12,6H369.39c-3.15,0-4.49-2.89-4.49-6V437.9c0-3.07,1.34-5.28,4.49-5.28H499.94c3.14,0,6.12,2.21,6.12,5.28Zm-39.38,41.26H456a3.75,3.75,0,0,1-3.53-3.89l-2.51-9.33a3.82,3.82,0,0,0-4.05-3.77H423.5a3.87,3.87,0,0,0-4.06,3.83L417,549.09a3.65,3.65,0,0,1-3.53,3.78H403.3a3.92,3.92,0,0,0,0,7.84h63.38a3.92,3.92,0,0,0,0-7.84" transform="translate(-251.99 -42.21)"/>
      </g>
    </g>
  </g>
  <g id="Desktop_Monitor-6" data-name="Desktop Monitor">
    <g class="cls-14">
      <g class="cls-14">
        <path class="cls-5" d="M401.56,576.16H259.26a7.27,7.27,0,0,0-7.27,7.27v92.63a7.27,7.27,0,0,0,7.27,7.27h142.3a7.27,7.27,0,0,0,7.28-7.27V583.43a7.27,7.27,0,0,0-7.28-7.27M329.23,679.28a3.71,3.71,0,1,1,3.71-3.71,3.71,3.71,0,0,1-3.71,3.71M401,663a6.35,6.35,0,0,1-6.12,6H264.33c-3.15,0-4.49-2.88-4.49-6V589.28c0-3.08,1.34-5.28,4.49-5.28H394.87c3.15,0,6.12,2.2,6.12,5.28Zm-39.37,41.25H350.91a3.74,3.74,0,0,1-3.53-3.88L344.87,691a3.83,3.83,0,0,0-4.06-3.78H318.44a3.88,3.88,0,0,0-4.06,3.84l-2.5,9.38a3.64,3.64,0,0,1-3.52,3.77H298.24a3.93,3.93,0,0,0,0,7.85h63.38a3.93,3.93,0,0,0,0-7.85" transform="translate(-251.99 -42.21)"/>
      </g>
    </g>
  </g>
</svg>
